<?xml version="1.0" standalone="no"?>
<!DOCTYPE svg PUBLIC "-//W3C//DTD SVG 20010904//EN"
 "http://www.w3.org/TR/2001/REC-SVG-20010904/DTD/svg10.dtd">
<svg version="1.0" xmlns="http://www.w3.org/2000/svg"
 width="1024.000000pt" height="1024.000000pt" viewBox="0 0 1024.000000 1024.000000"
 preserveAspectRatio="xMidYMid meet">
<metadata>
Created by potrace 1.14, written by Peter Selinger 2001-2017
</metadata>
<g transform="translate(0.000000,1024.000000) scale(0.100000,-0.100000)"
fill="#000000" stroke="none">
<path d="M6710 7809 c-47 -4 -93 -5 -102 -3 -9 3 -30 -1 -45 -9 -15 -8 -48
-17 -73 -21 -68 -10 -112 -16 -142 -20 -15 -1 -34 -8 -42 -15 -8 -7 -19 -10
-25 -7 -22 14 -315 -342 -312 -379 1 -3 -7 -13 -17 -23 -9 -9 -34 -52 -56 -95
-21 -44 -44 -77 -52 -77 -9 0 -12 -4 -9 -10 3 -5 0 -11 -7 -11 -50 -5 -69 -18
-57 -40 5 -10 15 -19 21 -19 7 0 6 6 -3 18 -11 14 -11 15 1 5 26 -24 19 -40
-24 -54 -22 -7 -56 -21 -75 -30 -34 -16 -71 -15 -71 2 0 5 -6 9 -14 9 -7 0
-16 9 -19 19 -4 16 2 20 38 26 24 3 49 13 56 21 9 12 9 14 -2 10 -8 -3 -44
-12 -81 -21 -37 -9 -87 -26 -110 -38 -47 -23 -164 -33 -184 -16 -9 7 -15 6
-21 -5 -6 -11 -13 -12 -23 -6 -13 9 -13 11 0 20 13 8 13 10 -2 10 -9 0 -21 -7
-26 -15 -7 -14 -11 -14 -33 3 -50 38 -103 52 -212 56 l-108 5 -62 44 c-34 25
-75 57 -91 72 -17 15 -44 34 -62 41 -18 8 -35 18 -39 23 -3 6 -13 8 -23 5 -15
-5 -15 -4 -2 6 12 9 12 13 2 17 -7 3 -18 12 -25 19 -7 8 -27 30 -46 49 -19 19
-29 35 -23 35 13 0 9 5 -61 83 -24 26 -48 47 -53 47 -13 1 -84 56 -79 62 9 8
-84 98 -102 98 -25 1 -49 21 -57 47 -5 16 -15 22 -34 22 -15 -1 -58 7 -97 16
-96 22 -353 14 -490 -15 -27 -6 -86 -17 -130 -24 -76 -12 -135 -32 -135 -45 0
-4 -10 -7 -22 -8 -12 -1 -36 -9 -53 -17 -16 -8 -55 -26 -86 -39 -30 -13 -84
-47 -119 -76 -35 -28 -70 -51 -77 -51 -7 0 -18 -9 -25 -20 -7 -11 -19 -20 -26
-20 -7 0 -10 -4 -7 -10 3 -5 2 -10 -3 -10 -27 0 -136 -207 -166 -315 -2 -5 -6
-22 -11 -37 -4 -16 -11 -25 -16 -22 -5 3 -9 0 -9 -6 0 -11 -9 -24 -42 -60 -9
-10 -15 -20 -13 -22 2 -1 -5 -19 -16 -38 -10 -19 -26 -51 -35 -70 -9 -19 -26
-51 -37 -70 -12 -19 -23 -42 -24 -51 -1 -9 -16 -45 -33 -80 -16 -35 -30 -74
-30 -86 0 -32 -10 -53 -26 -53 -8 0 -14 -10 -14 -26 0 -14 -11 -49 -24 -77
-12 -29 -31 -75 -40 -104 -9 -28 -24 -57 -32 -63 -7 -7 -14 -22 -15 -34 0 -11
-8 -34 -18 -51 l-18 -30 -219 3 c-121 1 -250 -3 -289 -9 -38 -6 -96 -14 -128
-19 -65 -10 -168 -48 -180 -67 -4 -7 -15 -13 -22 -13 -8 0 -15 -4 -15 -8 0 -5
-12 -14 -26 -20 -15 -7 -33 -31 -46 -58 -17 -40 -19 -58 -13 -125 4 -46 13
-86 21 -94 8 -7 14 -18 14 -23 0 -6 14 -25 31 -43 18 -19 43 -49 57 -67 26
-35 124 -114 154 -125 9 -3 31 -25 49 -49 18 -24 59 -65 92 -93 33 -27 70 -60
82 -72 34 -35 264 -147 331 -162 32 -7 91 -22 129 -33 56 -17 107 -21 260 -24
105 -3 213 -9 240 -15 67 -14 116 -21 138 -21 9 1 17 -3 17 -7 0 -5 26 -16 58
-25 92 -28 114 -38 159 -69 72 -51 91 -98 54 -131 -21 -19 -51 -77 -56 -105
-3 -23 25 -103 45 -126 21 -25 52 -137 44 -158 -4 -11 9 -30 40 -58 25 -23 46
-46 46 -51 0 -6 9 -22 20 -38 11 -15 16 -30 12 -34 -4 -4 1 -12 11 -18 17 -9
16 -11 -7 -35 -26 -26 -33 -43 -18 -43 10 0 58 -112 53 -125 -7 -21 -2 -67 10
-81 9 -11 8 -19 -4 -38 -15 -23 -15 -26 4 -50 11 -14 29 -26 40 -26 10 0 19
-6 19 -14 0 -7 6 -18 13 -25 10 -7 13 -35 12 -92 -2 -54 2 -91 12 -108 9 -18
12 -44 7 -88 -5 -55 -3 -66 17 -95 16 -22 26 -54 31 -98 10 -101 37 -212 55
-232 20 -22 32 -171 14 -182 -6 -4 -11 -18 -11 -30 0 -34 -56 -136 -95 -172
-18 -17 -36 -41 -39 -52 -4 -12 -14 -22 -21 -22 -8 0 -35 -28 -61 -63 -54 -70
-90 -107 -98 -100 -7 7 -56 -93 -56 -116 0 -10 -16 -42 -35 -70 -31 -45 -70
-115 -154 -276 -11 -22 -37 -76 -58 -120 -20 -44 -39 -82 -42 -85 -10 -9 -29
-53 -56 -135 -24 -72 -39 -108 -72 -170 -22 -42 -55 -132 -63 -171 -9 -42 -15
-57 -73 -184 -19 -41 -38 -86 -42 -100 -4 -14 -25 -60 -46 -102 -21 -43 -39
-83 -39 -89 0 -6 -24 -61 -54 -123 -30 -61 -57 -122 -61 -136 -8 -25 -27 -71
-73 -170 -25 -53 -27 -73 -21 -180 2 -35 -6 -62 -32 -115 -19 -39 -35 -73 -37
-77 -2 -5 137 -8 310 -8 l313 0 -31 29 c-17 16 -50 39 -74 52 -23 13 -54 30
-67 37 -13 8 -27 20 -30 28 -3 8 -12 14 -19 14 -14 0 -135 62 -161 83 -7 5
-10 14 -7 19 4 6 -2 7 -16 3 -16 -5 -32 1 -60 24 -21 17 -45 31 -52 31 -7 0
-2 6 11 13 14 7 32 32 43 62 11 28 25 57 32 65 14 17 79 165 126 287 17 45 39
92 49 105 10 13 25 43 34 68 8 25 22 59 31 75 9 17 16 37 16 45 0 8 6 26 13
40 19 35 128 315 131 334 1 8 5 19 9 22 4 4 7 15 7 24 0 9 12 41 26 71 57 117
104 220 104 226 0 12 183 378 198 396 24 27 32 20 30 -25 -3 -89 63 -334 99
-363 7 -5 14 -19 16 -30 14 -77 73 -235 89 -235 5 0 6 -4 3 -10 -3 -5 1 -10
10 -10 11 0 15 -5 12 -15 -4 -8 -2 -17 2 -20 19 -11 61 -107 61 -138 0 -24 8
-41 30 -62 19 -18 30 -39 30 -56 0 -31 31 -59 65 -59 11 0 25 -10 30 -23 6
-12 20 -23 33 -25 29 -4 29 -22 0 -22 -23 -1 -23 -1 -3 -16 11 -9 31 -20 45
-25 18 -7 30 -23 40 -52 9 -24 21 -42 30 -42 8 0 22 -13 30 -29 12 -21 31 -33
75 -48 55 -18 71 -31 125 -95 20 -24 58 -26 80 -5 33 31 79 33 125 6 55 -32
166 -85 187 -89 9 -2 26 -9 38 -15 16 -9 25 -8 38 2 11 9 14 10 8 1 -4 -7 -3
-13 3 -13 5 0 13 4 16 10 9 15 51 12 68 -5 8 -8 17 -12 20 -9 2 3 34 -9 71
-26 36 -17 76 -33 88 -35 13 -3 46 -15 74 -29 67 -32 109 -42 234 -56 66 -7
128 -8 165 -3 33 5 182 8 330 6 273 -2 402 6 472 31 29 10 55 11 108 4 58 -8
71 -7 81 6 6 9 20 14 32 11 12 -2 33 6 49 18 15 12 28 20 28 18 1 -12 45 13
50 28 3 10 23 31 45 46 22 15 40 31 40 36 0 5 14 16 30 24 28 14 57 63 83 138
4 9 12 17 19 17 7 0 26 16 41 35 20 26 38 37 68 41 30 5 41 12 45 30 3 13 12
28 20 35 8 6 14 18 14 27 0 9 8 25 19 36 23 26 57 117 66 179 4 26 11 47 15
47 4 0 12 33 19 72 7 40 19 93 26 118 36 117 50 245 51 455 2 272 1 260 18
246 8 -7 22 -26 30 -44 9 -18 28 -50 42 -72 13 -22 27 -47 30 -55 23 -61 40
-97 51 -110 7 -9 19 -35 27 -58 9 -23 22 -57 29 -75 8 -17 23 -52 33 -77 10
-25 25 -56 34 -70 9 -14 27 -50 39 -80 13 -30 49 -104 80 -165 32 -60 59 -114
59 -120 7 -41 91 -222 121 -259 5 -6 21 -42 35 -81 15 -38 31 -77 36 -85 6 -8
21 -36 35 -62 13 -25 36 -63 50 -84 14 -20 25 -43 25 -51 0 -17 68 -155 80
-163 4 -3 21 -32 39 -64 29 -56 40 -106 23 -106 -5 0 -30 -21 -58 -47 -27 -26
-58 -55 -70 -63 -11 -8 -60 -57 -109 -108 l-87 -92 231 0 c180 0 232 3 230 13
-3 26 1 37 15 37 8 0 16 -10 18 -22 2 -17 11 -24 31 -26 31 -4 31 -3 15 35 -6
15 -11 31 -10 35 2 11 -38 101 -52 118 -7 8 -20 39 -29 68 -9 29 -37 86 -62
127 -25 42 -60 106 -79 143 -72 147 -239 468 -247 476 -5 6 -9 18 -9 28 0 11
-26 69 -58 131 -33 62 -81 164 -107 227 -27 63 -56 126 -66 140 -28 42 -65
122 -83 183 -10 31 -21 55 -25 53 -4 -3 -17 23 -30 57 -13 34 -35 86 -47 116
-13 29 -24 58 -24 64 0 6 -17 34 -37 64 -20 29 -37 61 -38 71 -2 27 -35 83
-63 107 -25 22 -29 32 -36 110 -9 98 -62 224 -101 239 -8 3 -21 20 -31 38 -9
18 -46 62 -83 98 -82 80 -124 157 -142 265 -15 90 -18 267 -5 335 9 44 61 140
78 140 4 0 8 5 8 12 0 6 6 19 14 27 8 9 37 61 66 116 29 55 58 104 66 108 7 4
18 26 24 47 6 22 15 40 20 40 6 0 10 11 10 25 0 14 4 25 8 25 5 0 6 26 4 58
-4 51 1 68 34 140 21 45 43 82 49 82 16 0 51 40 59 66 4 12 16 32 27 45 11 12
22 34 25 48 3 14 9 34 14 43 6 10 21 83 35 164 32 183 34 194 55 221 12 16 18
44 20 90 4 171 6 182 31 204 35 31 63 39 129 39 32 0 69 4 82 9 13 5 42 11 65
14 23 4 70 13 105 21 35 8 90 17 123 21 105 12 280 54 377 89 100 37 178 75
178 88 0 4 13 8 30 8 16 0 37 8 47 19 10 10 23 20 30 22 20 6 153 119 225 192
37 37 72 67 77 67 11 0 101 57 116 74 17 18 73 56 84 56 16 0 61 60 61 82 0
12 8 30 17 40 26 29 23 179 -4 233 -59 115 -164 138 -618 139 -159 1 -329 -3
-377 -8 -104 -10 -111 -6 -128 67 -16 74 -51 168 -71 195 -14 18 -15 28 -7 57
9 27 8 39 -5 59 -10 14 -17 32 -17 41 0 8 -55 68 -122 133 -295 283 -339 331
-366 396 -7 17 -22 41 -33 52 -15 16 -24 45 -30 101 -15 114 -27 162 -55 213
-40 71 -117 169 -139 176 -11 4 -45 17 -75 31 -30 14 -64 29 -75 33 -22 10
-132 31 -149 29 -6 -1 -49 -5 -96 -10z m-2910 -79 c13 -8 13 -10 -2 -10 -10 0
-33 -16 -52 -35 -20 -19 -40 -35 -46 -35 -6 0 -22 -11 -36 -25 -20 -20 -23
-29 -14 -39 9 -12 18 -10 53 8 23 13 81 38 129 57 49 19 88 39 88 45 0 7 12
10 28 7 15 -2 43 -5 62 -8 19 -2 39 -4 43 -4 5 -1 5 -6 1 -13 -5 -7 -2 -9 8
-5 19 7 53 -27 43 -42 -3 -6 -17 -11 -31 -11 -29 0 -75 -22 -93 -44 -7 -8 -27
-18 -44 -22 -18 -3 -40 -15 -50 -25 -10 -11 -26 -19 -35 -19 -10 0 -22 -4 -27
-8 -13 -12 -98 -42 -108 -39 -5 1 -13 -6 -18 -15 -5 -10 -16 -15 -24 -12 -8 4
-15 1 -15 -4 0 -6 -9 -13 -20 -17 -11 -3 -34 -21 -51 -40 -18 -18 -42 -36 -54
-39 -12 -3 -35 -23 -51 -43 -15 -21 -32 -41 -37 -44 -11 -8 -5 -51 8 -56 6 -1
18 9 29 25 10 15 35 35 57 45 21 10 48 29 61 42 13 14 29 25 36 25 6 0 12 4
12 9 0 8 205 115 225 117 6 0 17 3 25 6 8 4 36 12 63 18 26 7 47 15 47 19 0 7
59 36 75 37 6 0 26 7 46 16 72 31 78 32 91 2 7 -16 23 -38 36 -51 12 -12 22
-29 22 -37 0 -8 6 -17 13 -20 6 -3 -1 -3 -18 1 -38 7 -34 7 -73 -2 -18 -4 -37
-15 -42 -24 -4 -9 -30 -27 -57 -39 -26 -13 -64 -31 -83 -42 -19 -10 -70 -36
-112 -57 -43 -21 -78 -43 -78 -49 0 -5 -17 -18 -37 -27 -21 -9 -62 -39 -91
-66 -29 -28 -63 -53 -75 -57 -12 -4 -24 -9 -27 -13 -3 -3 -22 -14 -42 -23 -25
-12 -36 -22 -32 -32 6 -16 45 -29 54 -18 10 15 56 39 111 60 36 13 74 38 104
67 26 26 49 44 52 41 3 -3 15 1 27 9 11 8 28 15 38 15 9 0 21 6 25 14 13 23
84 66 109 66 12 0 26 5 29 11 8 11 55 33 68 31 4 -1 13 9 19 23 11 25 23 30
65 26 12 -1 24 3 28 9 11 17 76 12 91 -7 7 -10 16 -14 20 -10 5 4 2 12 -5 16
-7 5 -9 11 -4 14 14 9 73 -36 70 -53 -1 -10 5 -14 17 -12 14 3 17 -1 12 -13
-3 -9 -6 -25 -6 -36 0 -14 -7 -19 -25 -19 -14 0 -25 -4 -25 -9 0 -5 -26 -19
-57 -31 -55 -20 -87 -41 -142 -89 -13 -11 -33 -23 -44 -27 -25 -8 -47 -28 -47
-44 0 -6 -10 -10 -22 -8 -16 2 -37 -12 -74 -50 -36 -38 -61 -54 -84 -57 -18
-2 -37 -9 -44 -14 -7 -6 -31 -13 -53 -17 -26 -4 -51 -17 -68 -34 -24 -25 -25
-30 -13 -49 17 -27 45 -36 63 -21 8 7 15 9 15 5 0 -4 7 -2 15 5 8 7 22 10 30
6 9 -3 23 6 37 24 12 17 28 30 35 30 7 0 13 5 13 11 0 5 30 24 68 41 37 18 69
36 71 42 8 19 82 86 96 86 8 0 19 9 25 20 6 12 21 20 35 20 13 0 28 6 32 13
11 17 49 37 72 37 10 0 33 14 51 30 26 24 41 30 76 30 36 0 42 3 37 16 -10 28
21 11 35 -19 7 -15 18 -27 24 -27 7 0 6 -5 -2 -15 -7 -8 -19 -15 -26 -15 -8 0
-14 -7 -14 -15 0 -9 -6 -12 -15 -9 -8 4 -17 -1 -21 -10 -3 -9 -33 -29 -66 -46
-56 -29 -99 -56 -140 -90 -10 -8 -44 -28 -76 -45 -31 -16 -57 -34 -58 -40 -2
-21 -26 -75 -34 -75 -4 0 -32 -24 -62 -52 -29 -29 -63 -59 -73 -66 -37 -24
-40 -27 -57 -60 -23 -43 -15 -58 33 -66 44 -7 47 -16 20 -55 -11 -15 -23 -39
-26 -54 -4 -15 -15 -28 -24 -29 -9 0 -20 -2 -26 -3 -5 -2 -16 -3 -22 -4 -7 0
-13 -7 -13 -13 -1 -7 -19 -31 -40 -53 -22 -22 -40 -48 -40 -57 0 -9 -7 -23
-15 -32 -8 -8 -12 -22 -9 -30 12 -31 -11 -15 -24 17 -31 73 -67 155 -91 207
-15 30 -33 88 -41 128 -7 39 -17 72 -22 72 -4 0 -8 7 -8 16 0 9 -10 30 -22 47
-13 18 -23 34 -23 37 -1 8 -27 54 -34 60 -3 3 -17 27 -30 53 -30 59 -110 133
-159 147 -74 21 -165 23 -227 5 -33 -9 -64 -24 -71 -32 -6 -10 -18 -14 -28
-10 -17 7 -60 -26 -48 -37 3 -3 -1 -6 -9 -6 -9 0 -28 -13 -44 -30 -30 -31 -58
-40 -49 -16 3 8 12 12 20 9 8 -3 14 0 14 6 0 6 -8 12 -17 12 -16 1 -16 2 0 6
11 3 16 11 13 19 -3 8 -2 14 3 14 11 0 7 58 -4 68 -5 4 -5 0 0 -8 7 -12 6 -13
-6 -2 -12 11 -12 14 1 22 13 8 12 10 -2 10 -10 0 -18 7 -18 15 0 8 5 15 10 15
6 0 10 7 10 15 0 8 -7 15 -16 15 -13 0 -14 3 -5 14 9 10 8 15 -4 20 -14 5 -16
38 -3 52 4 3 4 12 2 19 -3 7 2 15 10 18 9 4 16 13 16 22 0 8 4 15 9 15 5 0 12
12 16 27 3 15 34 55 68 88 34 34 83 85 109 114 35 39 53 52 70 49 14 -2 22 2
20 10 -1 6 4 12 12 12 7 0 25 9 40 21 14 11 30 18 36 14 5 -3 24 0 42 8 31 14
89 30 148 42 14 3 37 8 53 11 17 4 27 2 27 -5 0 -6 -4 -11 -8 -11 -5 0 -20 -9
-33 -21 -16 -14 -31 -18 -49 -14 -20 5 -23 4 -12 -6 16 -17 15 -29 -3 -29 -8
0 -15 -6 -15 -12 0 -15 -45 -38 -72 -38 -10 0 -18 -7 -18 -16 0 -17 -46 -89
-58 -89 -10 0 -56 -50 -60 -66 -2 -7 -12 -19 -22 -26 -10 -7 -21 -27 -25 -44
-5 -22 -15 -34 -37 -41 -28 -10 -29 -12 -22 -52 6 -38 18 -55 37 -56 5 0 5 5
2 10 -6 10 7 14 34 11 7 -2 10 2 6 8 -3 6 1 11 9 11 8 0 18 5 21 10 4 6 1 9
-7 8 -7 -2 -14 7 -16 19 -2 15 3 23 18 28 13 4 19 12 16 21 -3 8 -1 14 4 14 6
0 10 9 10 20 0 11 8 24 18 27 32 12 70 45 66 57 -3 7 7 18 20 26 14 7 23 17
20 22 -3 4 -1 8 4 8 4 0 26 16 48 35 21 19 42 35 46 35 4 0 10 9 13 20 3 11
15 20 26 20 10 0 19 7 19 15 0 8 7 15 15 15 8 0 15 9 15 20 0 14 11 22 40 31
22 7 40 17 40 23 0 19 72 69 109 77 52 10 64 10 81 -1z m3144 -8 c2 -4 -4 -9
-15 -9 -10 -1 -19 2 -19 8 0 11 27 12 34 1z m-304 -26 c14 -3 28 -5 32 -5 4
-1 5 -8 2 -16 -7 -17 4 -19 40 -5 21 8 26 6 26 -6 0 -12 9 -14 45 -10 24 3 47
1 50 -4 3 -6 15 -10 26 -10 21 0 62 -26 122 -77 20 -18 44 -33 52 -33 8 0 15
-7 15 -15 0 -8 4 -15 9 -15 5 0 14 -15 22 -32 7 -18 22 -42 34 -53 20 -19 55
-84 55 -102 0 -4 10 -24 22 -43 12 -19 29 -55 38 -80 12 -32 22 -46 38 -48 12
-2 22 -8 22 -13 0 -6 11 -26 24 -46 l24 -35 -21 -23 c-27 -27 -46 -27 -72 2
-21 23 -95 43 -95 25 0 -12 -60 -37 -82 -34 -9 2 -19 -6 -23 -19 -8 -24 -64
-78 -81 -79 -16 0 -73 -69 -89 -105 -7 -16 -23 -55 -36 -85 -13 -30 -28 -62
-35 -70 -6 -8 -17 -32 -23 -52 -7 -21 -18 -41 -24 -45 -20 -13 -33 -44 -51
-120 -22 -89 -35 -92 -108 -31 -35 29 -48 47 -45 60 3 11 0 18 -9 18 -8 0 -14
5 -14 11 0 5 -5 7 -12 3 -6 -4 -8 -3 -4 4 3 6 -14 32 -39 58 -25 25 -44 52
-43 59 2 7 -12 29 -29 49 -18 19 -33 40 -33 46 0 5 -4 10 -10 10 -5 0 -12 17
-16 38 -4 20 -12 40 -18 44 -6 4 -8 10 -5 13 4 3 36 -8 71 -24 71 -33 231 -92
236 -87 1 2 -5 20 -15 39 -18 36 -50 56 -92 60 -12 1 -27 9 -32 18 -13 25
-125 78 -149 72 -11 -3 -28 1 -37 8 -15 13 -15 12 -5 -7 9 -17 9 -24 -2 -33
-11 -9 -14 -9 -13 1 1 33 -4 48 -17 48 -19 0 -76 48 -76 64 0 6 10 12 23 11
25 0 35 17 15 26 -7 3 -23 11 -35 17 -13 7 -34 12 -47 12 -14 0 -36 4 -51 10
-14 5 -63 12 -108 16 -45 3 -84 7 -86 10 -3 2 8 17 25 33 16 16 35 36 42 45 9
12 20 15 35 10 12 -4 31 -7 42 -7 11 0 45 -6 75 -13 30 -8 66 -15 80 -17 28
-4 100 -37 100 -47 0 -3 16 -6 36 -7 19 -1 41 -7 47 -15 34 -41 111 -68 121
-43 4 10 -9 23 -42 40 -38 20 -41 24 -17 19 17 -4 53 -20 82 -35 29 -16 57
-29 64 -29 7 0 26 -11 43 -24 36 -27 76 -42 76 -28 0 6 -12 14 -27 20 -16 5
-46 28 -68 50 -36 36 -63 53 -100 62 -5 2 -20 14 -32 28 -12 15 -27 23 -36 19
-9 -3 -18 0 -21 8 -3 8 -13 14 -23 14 -46 1 -59 5 -71 23 -7 10 -21 18 -31 18
-10 0 -25 9 -32 20 -8 11 -27 22 -44 25 -115 17 -111 17 -91 1 10 -9 23 -13
27 -10 4 2 12 -4 18 -14 9 -16 6 -18 -22 -14 -18 3 -38 9 -46 15 -7 6 -31 11
-54 12 -23 0 -42 5 -44 13 -3 8 10 12 47 12 28 0 49 4 46 9 -4 5 0 11 6 14 10
3 9 8 -2 22 -8 10 -10 16 -5 13 6 -4 16 2 23 12 11 18 10 19 -13 10 -29 -11
-28 -12 -14 28 6 17 18 33 27 36 26 8 95 1 117 -11 27 -15 58 -27 68 -25 4 1
7 -2 7 -8 0 -5 10 -10 22 -10 12 0 29 -6 37 -14 18 -16 73 -47 169 -96 34 -17
68 -39 75 -48 7 -10 21 -22 32 -29 11 -6 19 -16 17 -23 -1 -6 2 -9 8 -5 5 3
38 -8 72 -25 35 -16 76 -30 93 -30 l30 0 -52 51 c-29 28 -53 55 -53 60 0 5 -8
9 -19 9 -10 0 -29 8 -42 18 -13 10 -37 24 -53 32 -17 8 -40 25 -53 38 -12 12
-36 25 -52 28 -16 4 -38 14 -48 23 -23 22 -95 56 -110 53 -6 -1 -23 8 -38 22
-14 13 -46 30 -71 37 -32 10 -43 18 -39 28 3 8 1 17 -5 21 -14 8 -2 40 15 40
7 0 18 6 24 14 7 9 23 13 39 10 110 -18 191 -38 212 -52 14 -9 27 -17 30 -17
3 0 12 -6 20 -13 47 -41 133 -98 186 -123 44 -21 79 -49 125 -99 41 -45 69
-68 79 -65 9 3 22 -6 32 -23 15 -23 18 -25 23 -9 9 23 -19 93 -49 120 -56 51
-83 73 -111 89 -16 9 -29 21 -28 27 4 16 -35 33 -58 26 -15 -5 -22 0 -29 22
-10 26 -70 72 -70 53 0 -5 -7 -7 -15 -4 -8 4 -12 10 -9 15 3 5 -2 12 -10 15
-9 3 -16 12 -16 19 0 20 -21 30 -31 14 -7 -11 -9 -11 -9 2 0 11 -12 19 -37 23
-73 13 -156 56 -109 56 8 0 22 8 32 18 22 22 81 40 114 35 14 -2 36 -5 50 -7z
m398 -26 c18 -16 37 -29 43 -27 11 2 68 -90 69 -111 0 -26 -35 -7 -52 27 -17
34 -105 115 -143 131 -16 7 -14 9 15 9 26 1 44 -7 68 -29z m-638 16 c0 -2 -9
-6 -20 -9 -11 -3 -20 -1 -20 4 0 5 9 9 20 9 11 0 20 -2 20 -4z m746 -185 c-3
-5 1 -11 8 -14 14 -6 19 -47 5 -47 -10 0 -30 51 -24 61 4 5 8 9 11 9 3 0 3 -4
0 -9z m-411 -31 c3 -6 -1 -7 -9 -4 -18 7 -21 14 -7 14 6 0 13 -4 16 -10z
m-3935 -350 c0 -5 -2 -10 -4 -10 -3 0 -8 5 -11 10 -3 6 -1 10 4 10 6 0 11 -4
11 -10z m3090 -34 c0 -3 -4 -8 -10 -11 -5 -3 -10 -1 -10 4 0 6 5 11 10 11 6 0
10 -2 10 -4z m-1127 -28 c12 -6 29 -12 37 -13 8 -1 53 -9 100 -18 47 -9 96
-18 110 -20 14 -2 38 -9 53 -15 16 -7 34 -12 41 -12 7 0 17 -17 22 -37 5 -20
15 -39 23 -41 9 -3 12 0 8 10 -8 22 12 38 47 38 l31 -1 -35 -30 c-19 -16 -47
-41 -62 -54 -15 -14 -31 -25 -37 -25 -6 0 -15 -9 -21 -20 -6 -11 -19 -20 -29
-20 -10 0 -24 -7 -31 -15 -7 -8 -19 -15 -26 -15 -8 0 -14 -4 -14 -10 0 -5 -7
-10 -16 -10 -8 0 -12 -5 -8 -11 4 -8 27 -9 68 -5 33 4 84 8 111 10 69 3 115
16 115 31 0 8 6 16 13 19 6 3 0 3 -14 0 -19 -4 -28 -1 -33 11 -5 14 -2 16 18
11 21 -5 25 -2 30 28 4 19 13 39 21 46 8 7 15 20 15 28 0 15 2 15 16 0 14 -13
20 -14 36 -5 15 10 20 9 27 -2 12 -19 61 -21 89 -3 30 19 110 22 121 4 10 -16
21 -18 30 -4 7 10 61 25 61 16 0 -12 -30 -35 -40 -29 -5 3 -10 -1 -10 -9 0
-21 39 -16 46 6 3 10 12 18 21 18 13 0 13 3 3 15 -10 12 -10 15 4 15 9 0 15 6
13 13 -1 8 10 11 36 10 20 -1 37 2 37 7 0 5 -8 7 -17 3 -16 -5 -16 -4 -3 10 9
9 37 20 62 23 63 9 190 -29 204 -60 5 -11 16 -21 24 -21 27 0 58 -24 81 -62
13 -21 31 -47 41 -57 10 -11 18 -24 18 -30 0 -5 7 -17 15 -26 8 -9 18 -31 21
-48 5 -26 3 -32 -11 -32 -10 0 -14 -5 -11 -12 3 -7 9 -21 12 -31 5 -13 13 -17
30 -13 22 6 54 -15 54 -35 0 -14 -20 -11 -21 4 0 9 -2 9 -6 -1 -4 -10 -9 -9
-24 4 -24 22 -24 9 2 -59 14 -36 28 -57 41 -60 16 -5 19 -2 15 13 -3 11 0 21
6 23 14 4 48 -24 41 -35 -3 -4 3 -5 12 -1 25 9 12 -20 -14 -32 -12 -5 -24 -15
-27 -23 -5 -14 36 -86 65 -114 19 -18 32 -14 24 7 -3 8 7 15 26 18 26 6 36 1
65 -28 19 -19 35 -37 35 -40 0 -4 21 -27 46 -53 26 -25 42 -48 35 -50 -7 -2
-6 -9 4 -19 16 -16 21 -48 6 -38 -5 3 -12 1 -15 -4 -4 -5 2 -12 13 -16 22 -7
34 -42 18 -52 -15 -9 -38 -10 -252 -14 -246 -3 -384 -15 -585 -50 -202 -35
-413 -89 -425 -109 -16 -26 -161 -39 -290 -25 -16 2 -38 4 -47 4 -10 1 -18 8
-18 16 0 8 -15 17 -37 21 -21 4 -54 14 -73 22 -19 8 -44 16 -55 17 -38 6 -160
39 -165 45 -3 3 -18 6 -35 7 -16 1 -68 7 -115 14 -47 7 -125 14 -175 15 -49 2
-119 6 -155 8 -36 2 -145 5 -242 5 -184 1 -203 6 -171 43 13 15 12 18 -7 28
-15 8 -18 15 -11 24 7 8 6 20 -4 39 -10 19 -11 29 -2 34 6 3 13 1 15 -5 6 -18
22 -4 22 19 0 10 5 19 10 19 6 0 10 4 10 10 0 13 26 44 74 89 22 20 57 55 79
78 21 22 52 47 68 53 18 8 29 20 29 32 0 11 5 16 11 13 6 -5 9 9 8 39 -2 38 2
51 23 74 14 15 32 45 39 67 18 56 130 169 159 160 15 -5 20 -2 21 12 0 10 3
13 5 6 3 -7 12 -9 20 -6 7 3 12 8 10 12 -3 4 4 12 14 18 15 10 22 8 40 -7 13
-11 27 -17 32 -14 5 3 1 12 -8 18 -12 9 -14 15 -6 20 7 4 12 2 12 -4 0 -6 4
-9 9 -6 5 3 11 0 14 -8 10 -26 112 5 120 36 3 10 1 18 -4 18 -5 0 -9 5 -9 10
0 6 6 10 14 10 8 0 17 13 21 29 8 37 62 111 82 111 8 0 24 -5 36 -12z m-1974
-45 c-33 -38 -36 -51 -14 -59 15 -6 21 -34 8 -34 -5 0 -17 7 -27 15 -10 8 -23
12 -27 9 -5 -3 -9 2 -9 10 0 10 6 13 18 10 16 -5 16 -5 0 9 -19 15 -25 43 -7
31 6 -3 10 1 9 12 -4 33 -1 35 39 32 l40 -2 -30 -33z m4581 -4 c7 -11 9 -24 5
-27 -7 -7 -35 25 -35 40 0 16 19 8 30 -13z m-4540 1 c0 -5 -2 -10 -4 -10 -3 0
-8 5 -11 10 -3 6 -1 10 4 10 6 0 11 -4 11 -10z m2721 -17 c13 -16 12 -17 -3
-4 -10 7 -18 15 -18 17 0 8 8 3 21 -13z m-2741 -1 c0 -5 -7 -9 -15 -9 -8 0
-15 4 -15 9 0 4 7 8 15 8 8 0 15 -4 15 -8z m518 -84 c22 -12 43 -29 48 -39 42
-78 57 -100 77 -116 13 -10 30 -35 37 -55 8 -20 17 -35 22 -32 4 3 5 -2 2 -11
-4 -9 -2 -26 3 -38 6 -12 22 -48 36 -80 30 -63 31 -67 19 -67 -5 0 -13 12 -19
28 -9 23 -11 24 -12 6 -1 -13 15 -37 38 -59 32 -31 40 -47 46 -89 3 -28 10
-55 15 -61 15 -18 81 -228 78 -248 -3 -19 -12 -19 -218 -18 -118 1 -246 4
-283 7 -87 6 -174 -11 -207 -41 -24 -22 -27 -22 -75 -9 -27 8 -79 21 -115 28
-36 8 -117 28 -180 44 -63 17 -128 33 -145 35 -29 5 -147 33 -173 42 -10 4 -9
11 6 32 11 16 32 57 47 93 33 79 99 170 123 170 12 0 73 66 67 72 -3 3 9 18
27 33 18 15 72 64 119 109 48 44 103 95 124 111 21 17 51 41 65 55 140 130
307 168 428 98z m3938 -28 c41 -27 79 -50 84 -50 6 0 32 -22 58 -49 26 -27 66
-60 89 -74 23 -15 49 -39 58 -54 9 -15 39 -44 66 -64 27 -20 59 -51 72 -70 12
-19 40 -43 61 -54 27 -14 47 -36 68 -75 16 -30 40 -75 54 -99 17 -31 21 -47
14 -56 -6 -7 -47 -15 -93 -19 -112 -9 -199 -45 -257 -106 -76 -80 -81 -81
-216 -75 -239 11 -304 16 -351 24 -26 5 -51 7 -55 5 -5 -3 -8 2 -8 10 0 10 -9
16 -25 16 -17 0 -29 9 -41 31 -13 27 -20 30 -46 27 -28 -4 -29 -4 -13 8 17 12
16 15 -13 49 -34 38 -51 83 -35 94 20 12 33 51 27 76 -4 15 -2 25 5 25 6 0 8
-7 5 -15 -4 -8 -3 -15 1 -15 12 0 34 33 35 52 0 25 89 258 108 284 9 13 23 24
30 24 8 0 10 8 6 24 -5 19 8 37 73 105 78 80 78 81 121 76 30 -3 66 -20 118
-55z m-4523 23 c-2 -9 4 -10 22 -3 16 6 25 6 25 0 0 -6 -5 -10 -11 -10 -5 0
-9 -8 -8 -17 4 -31 -11 -51 -32 -46 -10 3 -19 12 -19 20 0 19 -27 46 -32 32
-2 -7 -9 -5 -17 5 -11 14 -10 17 10 25 31 13 65 9 62 -6z m3637 -23 c0 -5 -7
-10 -16 -10 -8 0 -12 5 -9 10 3 6 10 10 16 10 5 0 9 -4 9 -10z m-3705 -38 c2
-34 -20 -59 -32 -38 -4 7 -14 15 -22 18 -11 3 -7 11 14 31 33 30 38 29 40 -11z
m135 14 c0 -3 -4 -8 -10 -11 -5 -3 -10 -1 -10 4 0 6 5 11 10 11 6 0 10 -2 10
-4z m640 -59 c0 -6 -9 -2 -20 8 -11 10 -17 22 -13 28 6 10 33 -19 33 -36z
m-736 21 c-5 -8 -1 -9 12 -4 14 5 12 0 -8 -19 -16 -14 -28 -29 -28 -33 0 -4
-11 -12 -24 -18 -20 -9 -26 -9 -31 3 -3 9 -13 13 -25 10 -17 -4 -20 0 -19 26
0 18 3 26 6 19 2 -6 9 -10 14 -7 5 4 6 -1 3 -9 -3 -9 -1 -16 5 -16 6 0 11 4
11 9 0 5 6 9 13 8 35 -1 47 5 47 23 0 11 7 20 16 20 9 0 12 -5 8 -12z m-100
-105 c3 -7 -2 -13 -11 -13 -9 0 -13 -3 -10 -7 4 -3 -2 -12 -13 -20 -11 -8 -20
-21 -20 -29 0 -8 -7 -14 -15 -14 -19 0 -19 14 0 30 9 7 14 22 13 34 -2 15 2
20 15 18 9 -2 17 2 17 8 0 5 -4 10 -10 10 -5 0 -10 5 -10 10 0 13 38 -10 44
-27z m1446 -113 c0 -5 -2 -10 -4 -10 -3 0 -8 5 -11 10 -3 6 -1 10 4 10 6 0 11
-4 11 -10z m2255 -50 c3 -5 1 -10 -4 -10 -6 0 -11 5 -11 10 0 6 2 10 4 10 3 0
8 -4 11 -10z m82 -124 c-4 -10 -1 -13 7 -10 22 8 30 -16 10 -30 -24 -18 -55
10 -40 37 13 21 30 23 23 3z m50 -52 c-3 -3 -12 -4 -19 -1 -8 3 -5 6 6 6 11 1
17 -2 13 -5z m1358 -203 c3 -5 1 -12 -5 -16 -5 -3 -10 -15 -10 -26 0 -14 -9
-21 -30 -25 -56 -12 -141 -103 -140 -151 1 -10 7 0 15 22 15 42 68 95 96 95 9
0 22 6 28 14 6 8 38 22 71 32 33 11 60 22 60 27 0 9 -4 9 -34 -3 -14 -5 -26
-7 -26 -5 0 12 53 25 64 16 6 -5 30 -12 52 -16 36 -5 42 -4 47 14 6 24 42 28
51 6 6 -17 62 -21 68 -4 6 18 81 23 338 23 296 -1 401 -8 470 -36 37 -14 110
-133 110 -179 0 -20 -7 -42 -15 -49 -8 -7 -15 -22 -15 -33 0 -29 -42 -87 -63
-87 -10 0 -20 -6 -23 -14 -3 -8 -20 -20 -37 -27 -18 -7 -42 -21 -53 -31 -12
-11 -31 -20 -42 -21 -12 0 -20 -3 -18 -5 7 -6 -45 -52 -59 -52 -7 0 -25 -13
-38 -30 -14 -16 -29 -30 -34 -30 -11 0 -73 -57 -73 -67 0 -10 -37 -43 -48 -43
-15 0 -102 -51 -128 -75 -15 -14 -29 -23 -32 -20 -3 2 -17 -3 -31 -13 -93 -61
-113 -70 -228 -101 -101 -27 -210 -47 -242 -44 -17 2 -130 -21 -233 -48 -88
-22 -118 -24 -118 -7 0 29 55 168 85 213 18 28 39 62 47 78 l14 27 194 5 c232
5 265 9 307 41 17 13 38 24 45 24 7 1 35 30 63 65 40 52 49 71 47 98 -2 24 3
38 22 56 17 16 23 28 17 35 -5 6 -11 24 -13 40 -2 25 -13 35 -67 63 -36 18
-82 36 -103 40 -31 4 -38 9 -33 22 5 13 4 14 -6 4 -8 -8 -40 -13 -82 -13 -37
0 -76 -4 -86 -9 -13 -8 -17 -5 -18 12 -2 15 0 18 6 8 6 -9 10 -10 16 -2 7 12
-11 41 -26 41 -5 0 -9 -10 -9 -22 -1 -22 -1 -22 -14 -5 -8 10 -17 14 -20 9 -3
-6 -16 -8 -28 -4 -14 3 -19 2 -14 -6 12 -19 -24 -68 -59 -80 -29 -11 -77 -52
-173 -145 -18 -18 -44 -56 -59 -86 -33 -67 -92 -129 -104 -110 -4 7 -5 17 -2
23 6 9 8 23 17 101 19 171 40 268 69 317 30 52 102 118 127 118 10 0 20 5 22
11 2 6 26 19 53 29 63 22 63 22 70 11z m1211 -99 c-4 -3 -14 2 -24 12 -16 18
-16 18 6 6 13 -6 21 -14 18 -18z m-6838 4 c5 -3 27 -8 48 -10 74 -9 119 -17
189 -31 39 -8 94 -17 123 -21 29 -4 55 -11 58 -15 3 -5 13 -9 23 -9 10 0 63
-14 117 -31 55 -17 106 -31 114 -31 8 -1 20 -5 27 -10 7 -5 17 -7 22 -4 14 9
26 -15 23 -44 -2 -17 9 -41 32 -70 19 -25 46 -77 61 -117 27 -75 40 -178 24
-188 -5 -4 -9 -1 -9 4 0 6 -3 10 -8 8 -9 -3 -33 16 -81 65 -26 25 -60 44 -116
63 -44 15 -87 28 -97 29 -9 0 -30 14 -48 29 -17 16 -37 26 -45 24 -7 -3 -21 0
-31 7 -30 20 -99 42 -234 76 -69 18 -132 34 -140 37 -8 3 -31 7 -50 10 -19 2
-60 10 -90 17 -30 8 -85 14 -122 15 -61 1 -70 -1 -102 -29 -26 -23 -33 -36
-28 -53 6 -24 32 -67 32 -53 0 5 6 4 13 -2 7 -6 53 -18 102 -27 235 -42 373
-89 360 -123 -2 -7 4 -21 13 -30 10 -10 17 -23 15 -28 -6 -17 35 -33 139 -54
164 -33 180 -40 266 -126 42 -42 85 -84 95 -92 9 -9 17 -21 17 -29 0 -7 7 -13
14 -13 12 0 76 -113 76 -134 0 -10 -48 -7 -55 3 -3 6 -13 10 -23 10 -32 1
-177 22 -229 33 -33 7 -100 8 -182 4 -112 -6 -143 -4 -213 13 -128 31 -297 92
-330 119 -9 8 -40 26 -68 41 -63 34 -120 80 -120 98 0 7 -14 16 -30 20 -17 3
-28 8 -26 11 8 7 -54 93 -72 100 -10 3 -23 14 -30 24 -7 10 -22 18 -32 18 -27
0 -51 11 -45 21 3 4 -7 16 -22 26 -37 24 -63 55 -58 70 2 6 -7 18 -19 27 -29
19 -56 94 -56 156 0 40 5 53 38 88 35 39 70 59 117 68 110 20 176 34 205 42
37 11 430 9 448 -2z m5722 -105 c0 -5 -7 -12 -16 -15 -21 -8 -24 -8 -24 5 0 5
5 7 10 4 6 -3 10 -1 10 4 0 6 5 11 10 11 6 0 10 -4 10 -9z m-5880 -141 c8 -4
60 -17 115 -29 128 -26 163 -39 176 -62 7 -15 7 -19 -3 -17 -7 2 -12 -2 -11
-9 2 -7 -8 -6 -28 4 -17 8 -45 17 -62 18 -18 1 -61 9 -97 18 -36 8 -95 18
-132 22 -69 7 -84 19 -73 56 5 15 14 17 53 12 26 -3 54 -9 62 -13z m5945 -58
c-3 -3 -11 0 -18 7 -9 10 -8 11 6 5 10 -3 15 -9 12 -12z m-3435 -6 c113 -13
171 -36 225 -91 47 -48 52 -58 73 -147 22 -97 27 -190 13 -283 -9 -62 -18 -44
-26 55 -5 66 -10 80 -38 113 -42 48 -67 52 -482 60 -212 4 -346 13 -407 27
-56 12 -206 3 -301 -18 -57 -13 -90 -16 -101 -10 -10 6 -20 7 -23 4 -4 -3 -1
-6 5 -6 6 0 9 -7 5 -16 -5 -15 -7 -15 -15 0 -5 8 -9 19 -9 23 -1 11 -20 33
-29 33 -15 0 -22 -60 -9 -76 10 -13 10 -17 -2 -24 -25 -16 -31 6 -30 123 0
128 16 186 60 225 l26 23 505 -4 c278 -3 530 -8 560 -11z m2410 -1 c90 -16
110 -29 103 -69 -5 -26 16 -86 29 -86 5 0 8 -21 8 -47 0 -35 -6 -56 -23 -77
l-23 -28 -64 15 c-109 26 -140 30 -280 32 -122 2 -160 0 -280 -21 -19 -3 -136
-7 -260 -9 -396 -5 -481 -24 -527 -115 -13 -24 -26 -47 -31 -52 -18 -18 1 125
29 217 45 150 62 182 98 190 17 4 31 10 31 14 0 6 65 18 260 45 14 2 210 4
435 5 324 1 428 -2 495 -14z m1020 -20 c11 -13 10 -14 -4 -9 -9 3 -16 10 -16
15 0 13 6 11 20 -6z m80 -15 c0 -11 -2 -20 -4 -20 -2 0 -6 9 -9 20 -3 11 -1
20 4 20 5 0 9 -9 9 -20z m110 -10 c13 -9 13 -10 0 -9 -8 0 -24 4 -35 9 l-20 9
20 0 c11 0 27 -4 35 -9z m-240 -10 c0 -5 -2 -10 -4 -10 -3 0 -8 5 -11 10 -3 6
-1 10 4 10 6 0 11 -4 11 -10z m34 -6 c3 -8 2 -12 -4 -9 -6 3 -10 10 -10 16 0
14 7 11 14 -7z m92 -16 c4 4 2 -1 -5 -10 -15 -20 -31 -15 -31 9 0 12 3 13 13
4 8 -6 18 -7 23 -3z m-222 -13 c-7 -16 -24 -21 -24 -6 0 8 7 13 27 20 1 1 0
-6 -3 -14z m106 3 c0 -4 -9 -8 -20 -8 -11 0 -20 4 -20 9 0 6 9 9 20 8 11 -1
20 -5 20 -9z m-146 -13 c3 -9 0 -15 -9 -15 -9 0 -12 6 -9 15 4 8 7 15 9 15 2
0 5 -7 9 -15z m181 5 c3 -5 -1 -10 -9 -10 -9 0 -16 5 -16 10 0 6 4 10 9 10 6
0 13 -4 16 -10z m140 -20 c-3 -5 -12 -10 -18 -10 -7 0 -6 4 3 10 19 12 23 12
15 0z m-156 -74 c15 -8 19 -16 13 -20 -15 -9 -199 -4 -214 6 -7 4 -11 8 -8 8
35 4 86 13 89 16 10 9 98 2 120 -10z m-5537 -28 c-7 -7 -12 -8 -12 -2 0 14 12
26 19 19 2 -3 -1 -11 -7 -17z m2616 -158 c11 -17 10 -20 -7 -20 -14 0 -19 6
-18 20 1 11 4 20 7 20 3 0 11 -9 18 -20z m202 -17 c0 -5 17 -8 38 -9 20 0 59
-3 87 -6 27 -3 60 -2 72 3 34 13 43 -9 54 -132 14 -163 21 -214 28 -217 4 -1
5 -18 3 -38 -3 -28 -1 -36 14 -40 13 -3 20 -15 21 -36 3 -35 34 -105 74 -164
16 -23 30 -53 33 -66 2 -14 23 -45 45 -69 22 -24 41 -50 41 -56 0 -7 5 -13 10
-13 6 0 28 -19 50 -42 32 -35 40 -39 46 -25 11 29 33 20 32 -13 -1 -32 23 -59
53 -60 16 0 47 -29 41 -38 -9 -13 45 -27 69 -18 22 8 34 4 74 -22 26 -17 52
-29 56 -26 15 9 10 41 -7 48 -23 9 -36 7 -29 -4 3 -5 1 -10 -4 -10 -6 0 -11 7
-11 15 0 10 -10 15 -28 15 -15 0 -33 5 -40 12 -8 8 -15 8 -27 -2 -19 -15 -30
-6 -39 33 -4 16 -2 27 4 27 5 0 10 -4 10 -10 0 -5 6 -10 13 -10 8 0 27 -6 43
-14 16 -8 51 -17 79 -21 27 -3 66 -11 86 -17 36 -10 37 -11 24 -42 -7 -17 -11
-59 -9 -93 1 -35 -1 -63 -7 -63 -5 0 -9 -12 -9 -27 0 -16 -4 -44 -10 -63 -5
-19 -12 -51 -15 -70 -14 -86 -38 -190 -56 -244 -34 -104 -47 -358 -20 -376 5
-3 12 -17 16 -32 4 -15 14 -33 22 -40 23 -19 32 -52 39 -143 3 -53 1 -98 -6
-119 -6 -20 -12 -50 -12 -68 -1 -41 -57 -98 -105 -105 -18 -3 -33 -9 -33 -13
0 -14 -92 -29 -111 -19 -10 5 -28 9 -41 9 -16 0 -27 9 -37 30 -12 28 -11 36
13 84 30 60 32 84 11 92 -18 7 -64 -44 -65 -72 0 -23 -32 -75 -71 -114 -13
-14 -38 -41 -54 -60 -28 -32 -159 -100 -193 -100 -7 0 -23 -6 -35 -14 -12 -8
-43 -18 -70 -21 -46 -7 -47 -7 -61 26 -8 19 -17 75 -21 124 -3 50 -9 108 -12
130 -5 37 -14 195 -12 223 1 20 -1 79 -3 132 -3 44 -5 48 -18 34 -13 -13 -15
-64 -14 -345 l0 -331 -30 7 c-17 3 -40 8 -51 9 -41 7 -81 19 -100 32 -11 8
-27 14 -36 14 -9 0 -28 9 -41 20 -14 10 -28 17 -31 13 -4 -3 -18 2 -32 11 -14
9 -25 14 -25 10 0 -4 -7 -1 -15 6 -8 7 -14 20 -13 29 2 13 -6 16 -44 15 -45 0
-47 1 -32 17 15 16 13 21 -16 63 -17 25 -26 46 -20 46 15 0 80 64 80 79 0 19
-35 12 -76 -15 -48 -32 -64 -52 -64 -80 0 -27 -35 -51 -99 -66 -62 -14 -96 -5
-136 36 -24 25 -31 40 -28 59 3 13 0 28 -6 31 -7 5 -8 13 -2 24 5 9 12 48 16
87 4 41 13 74 21 80 8 5 17 27 21 48 5 36 5 37 -26 37 l-31 0 0 79 c0 58 -5
91 -21 127 -20 44 -21 57 -13 168 17 248 7 308 -76 448 -23 37 -40 76 -38 85
2 10 -3 18 -11 18 -14 0 -32 41 -46 104 -6 29 -5 33 9 28 9 -4 16 -3 16 1 0 4
24 5 53 2 34 -3 51 -10 50 -18 -2 -6 2 -12 7 -12 6 0 10 9 10 19 0 20 18 31
51 31 11 0 42 12 70 26 28 14 58 23 67 19 9 -3 13 -3 9 1 -9 9 22 44 40 44 7
0 13 5 13 10 0 6 7 10 15 10 8 0 15 7 15 15 0 8 6 15 13 15 7 0 36 25 65 55
29 30 58 55 64 55 6 0 8 9 5 21 -3 12 -3 18 0 15 7 -7 43 69 43 89 0 7 8 23
18 36 11 13 22 37 26 54 4 16 12 33 18 36 6 4 11 19 12 35 2 16 8 43 15 59 7
17 13 41 13 55 0 14 3 27 7 30 3 3 12 16 19 29 13 22 12 23 -7 18 -18 -4 -19
-2 -10 14 5 10 14 19 19 19 5 0 7 7 4 15 -4 8 -2 15 4 15 5 0 13 11 16 24 3
13 9 32 13 42 5 13 3 15 -7 9 -8 -5 -11 -3 -8 6 3 8 11 13 18 11 9 -2 10 5 6
25 -4 18 -3 23 2 14 12 -17 23 -2 37 54 l11 40 74 6 c41 3 78 6 83 7 4 1 7 -1
7 -5z m-2222 -58 c-3 -3 -9 2 -12 12 -6 14 -5 15 5 6 7 -7 10 -15 7 -18z m162
-77 c31 -42 40 -136 16 -160 -9 -9 -16 -21 -16 -27 0 -36 -54 33 -58 74 -5 40
-1 108 7 140 4 15 30 1 51 -27z m2457 -308 c16 -85 45 -164 63 -175 15 -9 12
-25 -5 -25 -8 0 -15 5 -15 11 0 6 -6 25 -14 42 -40 91 -53 151 -60 267 -4 81
-4 82 5 25 5 -33 17 -98 26 -145z m1523 -4 c0 -19 -54 -106 -66 -106 -22 0
-16 30 9 40 12 5 16 9 10 9 -9 1 -10 8 -3 25 5 13 7 26 5 28 -2 2 7 5 20 6 14
1 25 0 25 -2z m-97 -168 c-8 -13 -9 -18 -12 -38 0 -5 -9 -10 -18 -10 -11 0
-14 3 -7 8 6 4 14 17 18 30 4 12 12 22 17 22 6 0 7 -6 2 -12z m-1307 -85 c-7
-7 -26 7 -26 19 0 6 6 6 15 -2 9 -7 13 -15 11 -17z m1274 22 c0 -3 -9 -24 -20
-45 -19 -38 -42 -51 -54 -31 -7 11 18 33 27 24 4 -3 7 3 7 13 0 11 5 25 12 32
12 12 28 16 28 7z m-3485 -101 c-17 -13 -18 -16 -5 -24 8 -5 23 -7 32 -4 12 4
16 -1 15 -15 -1 -16 -4 -18 -16 -8 -11 9 -15 9 -18 0 -3 -7 -9 -13 -14 -13 -6
0 -7 5 -4 10 4 6 2 17 -4 24 -15 17 -3 46 18 46 13 -1 13 -3 -4 -16z m2304 3
c11 -14 5 -27 -12 -27 -6 0 -7 3 -4 7 4 3 2 12 -4 20 -7 8 -8 13 -1 13 5 0 15
-6 21 -13z m-2464 -86 c4 -9 0 -11 -12 -6 -10 4 -30 10 -45 13 -16 2 -28 11
-28 18 0 8 -9 22 -19 31 -11 9 -18 20 -15 25 6 10 111 -61 119 -81z m3568 73
c-3 -8 -14 -14 -25 -14 -10 0 -17 -4 -13 -9 3 -5 -3 -12 -13 -15 -10 -4 -25
-17 -32 -31 -7 -14 -22 -28 -34 -31 -11 -4 -26 -13 -34 -20 -7 -8 -20 -14 -28
-14 -8 0 -25 -7 -37 -14 -12 -8 -38 -17 -57 -21 -19 -3 -58 -10 -86 -15 -73
-15 -274 -5 -383 19 -162 36 -276 81 -204 81 23 0 25 -2 13 -11 -12 -8 -9 -10
13 -6 15 2 30 1 32 -3 3 -5 37 -14 75 -21 39 -7 73 -16 76 -20 2 -5 11 -6 19
-2 9 3 21 1 28 -4 6 -5 41 -11 77 -12 138 -5 188 -9 198 -15 6 -3 12 -1 14 5
2 5 15 12 28 14 70 11 113 24 120 35 4 7 12 10 18 6 6 -3 13 -2 17 4 3 5 13
10 21 10 9 0 30 11 48 25 18 14 37 25 42 25 6 0 24 15 42 33 33 34 76 48 65
21z m-1018 -48 c17 -13 27 -27 23 -31 -12 -13 -58 5 -58 22 0 9 -8 25 -17 36
-17 19 -17 20 2 9 11 -6 34 -22 50 -36z m1156 -32 c-12 -26 -21 -55 -21 -65 0
-11 -6 -19 -14 -19 -9 0 -12 -7 -9 -20 3 -11 9 -17 14 -14 13 7 11 -7 -5 -52
-7 -22 -11 -45 -8 -52 3 -11 -38 -84 -58 -102 -4 -3 -17 -23 -30 -45 -13 -22
-31 -47 -40 -55 -9 -8 -15 -22 -12 -30 4 -12 2 -13 -9 -3 -12 9 -14 3 -15 -41
0 -29 -4 -61 -9 -72 -4 -10 -9 -23 -9 -29 -3 -22 -40 -131 -49 -143 -14 -19
-63 -109 -92 -169 -23 -50 -55 -94 -84 -117 -8 -6 -30 -27 -50 -47 -44 -45
-76 -56 -89 -33 -7 13 -11 14 -17 3 -5 -7 -4 -14 2 -16 6 -2 8 -21 6 -47 -7
-54 9 -66 48 -37 38 28 42 27 37 -14 -2 -19 -2 -35 2 -35 3 0 6 -34 6 -75 1
-41 -2 -75 -6 -75 -4 0 -10 -20 -13 -44 -4 -24 -16 -61 -27 -80 -11 -20 -20
-46 -20 -56 0 -27 -23 -100 -32 -100 -3 0 -12 -17 -19 -37 -6 -21 -15 -40 -18
-43 -4 -3 -12 -16 -19 -30 -7 -14 -28 -52 -47 -85 -19 -33 -39 -69 -44 -80 -5
-11 -21 -33 -35 -48 -14 -15 -33 -41 -41 -57 -13 -24 -40 -43 -67 -45 -17 -1
-19 -15 -2 -15 17 0 16 -1 -4 -15 -20 -15 -24 -14 -50 5 -16 12 -36 34 -46 51
-9 16 -24 29 -32 29 -22 0 -17 8 41 65 32 30 58 49 62 42 9 -14 33 21 33 49 0
13 -5 26 -10 29 -7 5 -8 11 -1 18 5 7 13 41 16 77 4 36 14 80 21 99 8 18 14
43 14 55 0 11 7 34 15 49 8 16 14 36 13 45 -3 32 14 102 28 113 19 15 18 63
-1 79 -10 8 -15 28 -14 59 2 47 -31 131 -52 131 -5 0 -9 6 -7 14 2 7 -8 23
-22 34 -21 18 -22 21 -7 22 20 0 24 38 4 46 -14 5 -16 38 -4 50 4 4 7 33 7 65
0 32 4 60 9 63 5 4 12 25 16 49 4 23 24 92 45 152 21 61 45 153 53 205 9 52
21 129 28 171 l13 77 55 13 c64 14 159 23 214 18 19 -1 120 12 137 18 8 3 24
8 35 10 44 8 205 112 205 131 0 5 20 21 45 36 25 16 46 34 46 40 1 6 3 3 6 -6
2 -9 -5 -38 -16 -64z m-3381 -25 c0 -6 -4 -7 -10 -4 -5 3 -10 11 -10 16 0 6 5
7 10 4 6 -3 10 -11 10 -16z m-254 -17 c-10 -2 -22 0 -28 6 -6 6 0 7 19 4 21
-5 23 -7 9 -10z m-51 -12 c-3 -5 0 -7 9 -4 8 3 24 1 35 -6 12 -6 21 -7 21 -2
0 20 45 22 61 3 8 -10 26 -22 40 -26 13 -4 49 -20 79 -35 55 -28 88 -36 188
-45 29 -3 61 -9 71 -14 12 -7 22 -6 30 2 9 9 16 9 31 -1 14 -9 26 -9 39 -3 20
11 80 9 100 -3 6 -4 11 -1 11 6 1 13 50 -41 50 -55 0 -4 10 -24 23 -45 25 -42
42 -88 52 -147 4 -22 10 -42 13 -45 4 -3 19 -27 33 -55 38 -71 59 -171 49
-232 -20 -114 -18 -186 5 -278 31 -123 38 -227 22 -370 -7 -66 -10 -140 -6
-165 16 -109 50 -241 73 -285 15 -26 26 -56 26 -66 0 -11 4 -19 8 -19 10 0 35
-48 37 -70 1 -9 7 -26 14 -38 6 -12 9 -22 6 -22 -3 0 7 -23 22 -51 37 -69 140
-178 211 -225 31 -21 61 -44 65 -51 4 -7 15 -13 22 -13 8 0 15 -4 15 -8 0 -5
11 -14 24 -20 19 -8 26 -8 30 1 3 7 5 6 5 -3 1 -18 99 -67 151 -76 19 -3 54
-13 76 -21 64 -23 244 -23 319 1 81 25 125 46 122 60 -1 6 8 10 21 8 13 -2 30
2 39 9 8 7 24 18 34 24 44 24 157 106 182 131 15 15 26 33 23 40 -3 7 7 24 22
38 69 65 106 96 114 96 5 0 30 -23 55 -50 72 -78 100 -133 73 -142 -7 -2 -5
-16 6 -36 10 -21 18 -68 21 -128 4 -86 2 -95 -13 -92 -18 3 -51 -44 -35 -50 5
-2 7 -12 4 -22 -3 -12 0 -20 7 -20 7 0 9 -8 5 -21 -5 -15 -4 -19 4 -15 6 4 11
3 11 -3 0 -10 -40 -37 -50 -34 -3 1 -6 -10 -6 -25 0 -48 -16 -97 -37 -115 -22
-18 -32 -47 -17 -47 5 0 11 6 13 13 3 7 6 7 6 1 1 -6 -8 -22 -19 -35 -11 -13
-23 -28 -27 -34 -12 -15 -31 -57 -39 -85 -8 -31 -33 -60 -50 -60 -18 0 -37
-37 -24 -45 6 -4 2 -19 -12 -38 -27 -37 -44 -64 -56 -92 -5 -11 -21 -31 -34
-45 -13 -14 -34 -39 -46 -57 -13 -18 -35 -34 -52 -38 -27 -6 -35 -15 -31 -38
1 -4 -10 -5 -24 -1 -20 5 -25 2 -25 -11 0 -10 8 -24 18 -31 16 -13 16 -13 0
-14 -11 0 -18 -8 -18 -20 0 -23 -37 -28 -59 -7 -8 6 -11 7 -8 2 3 -6 -3 -11
-14 -11 -10 0 -19 6 -19 13 0 7 12 13 27 13 l27 0 -23 16 -24 17 22 12 c19 10
20 13 8 24 -12 9 -18 9 -30 -4 -9 -8 -20 -15 -26 -15 -6 0 -11 -7 -11 -15 0
-8 -5 -15 -11 -15 -6 0 -9 7 -5 15 4 10 -1 15 -14 15 -22 0 -27 -16 -7 -23 6
-2 9 -8 5 -11 -3 -4 -16 2 -27 13 -12 12 -25 21 -30 21 -5 0 -8 16 -6 36 3 31
1 35 -18 32 -12 -2 -23 -11 -25 -20 -3 -13 1 -16 15 -12 15 5 16 4 3 -5 -12
-9 -20 -5 -37 15 -13 14 -23 20 -24 12 0 -7 -2 -25 -3 -41 -1 -19 2 -26 11
-23 16 7 17 -10 1 -20 -6 -4 -16 0 -23 9 -12 17 -31 24 -21 8 3 -5 -3 -11 -14
-14 -11 -3 -20 -10 -20 -17 0 -6 4 -8 10 -5 6 3 7 -1 4 -9 -3 -9 -11 -16 -16
-16 -6 0 -5 -6 2 -15 10 -12 10 -15 -2 -15 -8 0 -20 -10 -26 -22 -9 -19 -11
-20 -11 -5 -1 15 -4 16 -21 7 -21 -11 -40 -6 -40 11 0 5 11 7 24 3 18 -4 27
-1 35 15 15 27 -2 36 -33 16 -23 -16 -24 -15 -19 4 3 13 0 22 -8 23 -8 0 -18
2 -24 2 -19 3 -35 17 -35 33 0 8 -9 26 -20 40 -11 14 -20 36 -20 49 0 12 -5
26 -11 30 -6 3 -8 15 -6 26 4 13 1 18 -7 15 -8 -3 -18 8 -26 28 -11 28 -16 31
-24 20 -9 -12 -15 -11 -34 5 -13 11 -21 23 -19 27 3 5 -9 8 -26 8 -30 0 -52
21 -109 105 -14 22 -19 23 -37 12 -19 -11 -23 -10 -32 10 -10 23 -24 48 -44
78 -5 8 -10 17 -10 20 -3 21 -21 60 -40 85 -12 17 -34 53 -48 82 -15 29 -35
56 -44 62 -10 6 -12 11 -5 11 16 0 15 25 -2 53 -12 19 -26 80 -40 172 -2 16 2
45 10 64 16 38 18 99 4 121 -7 12 -12 12 -29 -4 -21 -19 -21 -19 -22 15 -2
158 -5 178 -24 199 -32 36 -83 61 -132 67 -26 2 -55 9 -64 14 -9 4 -19 5 -23
2 -3 -3 -14 3 -23 14 -10 11 -24 18 -30 16 -7 -3 -13 1 -13 8 0 17 -39 100
-57 120 -8 9 -13 20 -12 25 3 11 -23 67 -35 75 -5 4 -6 17 -3 29 3 13 0 23 -9
27 -8 3 -14 15 -14 27 -1 55 -37 122 -102 188 -53 53 -81 68 -109 61 -15 -4
-20 -3 -15 5 5 8 2 10 -8 6 -11 -4 -16 0 -16 14 0 23 -25 46 -40 37 -6 -4 -10
4 -10 19 0 15 6 26 13 26 16 0 21 81 5 91 -14 9 -13 132 1 137 14 5 15 32 1
32 -16 0 0 27 23 38 l22 10 -25 6 c-23 6 -25 11 -22 60 4 56 -21 117 -59 144
-11 7 -19 25 -19 41 0 15 -5 32 -11 38 -6 6 -12 26 -13 45 -2 21 -7 32 -15 30
-7 -1 -15 6 -18 17 -3 11 -11 17 -18 15 -16 -6 -43 35 -47 72 -2 16 -13 37
-25 47 -22 17 -32 57 -15 57 4 0 8 8 9 18 1 9 4 31 7 49 4 25 2 31 -10 26 -10
-3 -14 2 -14 19 0 36 10 40 31 15 14 -17 18 -18 19 -6 0 8 -9 25 -19 36 -11
12 -17 23 -14 26 3 3 -2 19 -10 36 -15 30 -15 30 5 20 28 -15 33 -5 12 26 -12
18 -19 22 -25 14 -9 -16 -38 -4 -46 18 -3 10 -14 29 -24 43 -31 46 -37 140 -8
140 6 0 7 -4 4 -10z m415 -10 c0 -5 -2 -10 -4 -10 -3 0 -8 5 -11 10 -3 6 -1
10 4 10 6 0 11 -4 11 -10z m2821 -1467 c0 -4 7 -18 15 -31 8 -12 12 -27 9 -32
-10 -16 -25 -1 -19 18 5 16 5 16 -9 0 -12 -16 -9 -22 30 -64 28 -30 41 -53 38
-64 -3 -9 3 -25 15 -35 11 -10 20 -24 20 -30 0 -7 7 -15 15 -19 10 -4 13 -14
9 -35 -5 -25 0 -37 27 -68 18 -21 38 -38 43 -38 6 0 11 -14 11 -30 0 -17 3
-35 7 -40 7 -12 24 -176 18 -190 -2 -5 -3 -20 -3 -31 1 -16 -4 -20 -18 -17
-21 6 -26 -16 -8 -34 15 -15 3 -33 -22 -33 -13 0 -19 -7 -19 -21 0 -11 4 -18
10 -14 12 7 46 -26 55 -54 12 -38 14 -81 5 -81 -11 0 -1 -60 13 -77 7 -10 4
-13 -13 -13 -20 0 -22 -3 -15 -32 4 -18 8 -49 10 -68 1 -19 6 -43 10 -52 9
-23 -17 -49 -36 -37 -19 12 -39 11 -39 -1 0 -5 9 -10 20 -10 11 0 20 -6 20
-14 0 -7 3 -28 6 -45 5 -22 3 -31 -5 -29 -18 5 -23 -119 -5 -137 8 -7 14 -22
14 -32 0 -11 -3 -14 -8 -7 -10 16 -47 34 -69 34 -15 0 -13 -5 10 -26 18 -16
26 -32 22 -42 -3 -8 0 -19 7 -24 11 -6 11 -8 0 -8 -7 0 -25 8 -40 17 l-27 17
23 -25 c12 -14 22 -32 22 -41 0 -19 -26 -42 -39 -34 -5 4 -12 2 -15 -3 -4 -5
3 -12 14 -16 11 -3 20 -14 20 -23 0 -12 -3 -13 -11 -5 -16 16 -39 -8 -39 -41
0 -17 -5 -26 -16 -26 -12 0 -15 -6 -10 -26 6 -22 4 -25 -10 -20 -22 8 -57 -27
-42 -42 12 -12 1 -35 -12 -27 -5 3 -12 -4 -15 -16 -7 -20 -85 -108 -85 -95 0
3 -8 -2 -18 -11 -13 -12 -16 -22 -9 -31 6 -8 6 -12 0 -12 -5 0 -15 -11 -21
-25 -6 -14 -18 -25 -27 -25 -8 0 -31 -18 -51 -40 -24 -26 -45 -40 -61 -40 -20
0 -24 -4 -20 -20 4 -15 -2 -22 -28 -30 -19 -6 -35 -14 -37 -18 -2 -4 -20 -20
-41 -35 -27 -21 -47 -28 -72 -26 -19 2 -37 0 -41 -4 -16 -16 -35 -7 -29 13 5
17 2 20 -27 20 -18 -1 -56 -9 -84 -18 -41 -15 -66 -17 -120 -11 -38 5 -121 8
-186 8 -146 -1 -289 25 -308 54 -10 17 -10 22 4 32 9 7 16 17 16 24 0 8 5 9
19 1 14 -7 20 -7 23 1 2 7 28 12 60 13 47 0 62 -4 82 -23 42 -39 161 -50 219
-19 21 11 22 22 1 43 -14 13 -15 21 -5 41 6 14 11 34 11 45 0 11 21 48 47 82
81 105 113 151 129 185 14 31 60 107 105 174 10 14 35 66 55 115 19 48 47 111
61 138 27 51 35 76 58 180 16 67 22 326 10 426 -6 58 -5 68 10 77 11 5 16 16
12 24 -6 18 35 44 52 34 6 -4 9 -1 5 7 -5 15 59 114 87 135 10 6 23 28 29 47
6 19 15 35 19 35 13 0 61 81 61 102 0 12 15 44 33 72 35 52 57 121 57 176 0
32 18 76 27 67 2 -3 5 -9 4 -14z m-2899 -45 c-17 -17 -15 -28 6 -28 9 0 35 -7
57 -14 29 -11 39 -20 38 -33 -1 -10 0 -12 3 -5 3 6 10 12 16 12 5 0 8 -6 5
-12 -2 -7 3 -19 12 -26 12 -9 12 -12 2 -10 -7 2 -15 -2 -18 -9 -3 -7 3 -9 17
-6 20 5 21 4 9 -16 -8 -11 -17 -21 -21 -21 -5 0 -8 -9 -8 -19 0 -11 -4 -23
-10 -26 -17 -10 -11 -47 13 -82 23 -34 44 -45 33 -17 -3 8 -2 12 4 9 10 -6 14
7 11 32 -1 6 3 14 9 18 20 12 10 27 -15 23 -14 -3 -28 -1 -31 3 -3 5 2 9 10 9
9 0 16 5 16 10 0 6 6 10 14 10 15 0 26 -21 26 -51 0 -11 23 -75 50 -143 28
-68 50 -130 50 -139 0 -17 45 -57 64 -57 6 0 19 -9 29 -20 13 -16 28 -20 65
-19 26 1 61 -2 77 -6 17 -3 45 -7 63 -8 17 -1 32 -5 32 -9 0 -5 -4 -8 -9 -8
-6 0 -4 -12 4 -27 8 -15 12 -30 9 -35 -3 -4 -1 -8 5 -8 17 0 8 -43 -21 -98
-24 -46 -26 -57 -16 -75 7 -12 11 -26 9 -32 -13 -46 7 -283 29 -330 5 -11 10
-29 12 -40 2 -10 22 -32 44 -47 26 -17 49 -45 64 -75 13 -26 32 -66 42 -88 11
-22 33 -58 49 -80 16 -22 49 -69 72 -105 23 -36 47 -64 52 -63 6 1 19 -7 30
-17 11 -10 47 -30 80 -45 33 -14 66 -35 74 -46 12 -21 12 -21 -10 -5 -34 23
-53 21 -32 -4 10 -11 22 -20 29 -20 12 0 51 -39 46 -46 -2 -3 9 -26 23 -53 25
-46 100 -111 128 -111 14 0 47 -35 47 -50 0 -14 18 -12 22 2 2 6 10 8 16 4 9
-5 8 -11 -3 -22 -19 -19 -70 -15 -71 6 -2 31 -6 34 -14 13 -10 -23 -40 -32
-40 -12 0 7 -7 8 -17 4 -32 -13 -58 -15 -72 -5 -12 7 -13 12 -2 27 8 10 3 6
-11 -8 -13 -14 -30 -23 -37 -21 -8 3 -11 0 -7 -7 13 -21 -31 -12 -45 9 -8 12
-24 22 -36 23 -12 0 -21 4 -21 7 2 22 -8 30 -52 39 -28 6 -65 17 -83 24 -17 7
-42 12 -54 11 -12 -1 -20 3 -17 7 3 5 -3 9 -14 9 -11 0 -31 9 -46 21 -14 11
-30 17 -36 14 -5 -3 -10 -1 -10 5 0 6 -5 8 -10 5 -6 -4 -8 -10 -5 -15 8 -14
-24 -20 -51 -10 -33 13 -34 13 -27 -5 5 -13 2 -14 -21 -4 -14 7 -26 19 -26 26
0 8 -4 11 -10 8 -5 -3 -10 -1 -10 4 0 14 13 14 28 -1 9 -9 15 -9 24 0 9 9 9
12 -1 12 -7 0 -9 5 -6 10 12 20 -6 32 -24 16 -16 -15 -19 -14 -36 4 -10 11
-24 20 -31 20 -17 0 -56 38 -74 73 -8 16 -27 38 -42 49 l-28 19 0 -20 c0 -12
5 -21 10 -21 6 0 10 -6 8 -12 -1 -7 3 -23 10 -34 10 -18 8 -24 -10 -40 -12
-11 -18 -13 -14 -6 4 6 4 12 -1 13 -4 0 -16 2 -26 4 -14 3 -16 -1 -12 -16 8
-25 -19 -25 -44 0 -11 11 -22 17 -24 14 -7 -6 -137 157 -149 186 -5 14 -7 30
-4 38 3 7 1 13 -3 13 -5 0 -19 21 -32 46 -22 48 -81 114 -100 114 -6 0 -9 7
-5 15 6 18 -27 55 -49 55 -17 0 -20 17 -4 22 8 3 6 16 -5 43 -10 22 -14 50
-11 62 5 23 -10 33 -17 11 -2 -6 -10 -8 -17 -4 -8 6 -9 11 -1 21 7 9 6 16 -6
25 -8 8 -13 22 -11 32 6 21 -60 98 -84 98 -24 0 -29 10 -18 32 8 15 7 24 -7
39 -15 17 -15 19 -1 25 11 4 13 11 8 22 -5 10 -14 29 -21 44 -8 18 -19 25 -31
23 -11 -2 -19 0 -19 6 0 5 5 9 10 9 14 0 12 37 -2 43 -10 4 -9 8 2 16 13 9 13
11 -1 11 -9 0 -19 6 -22 14 -4 10 0 14 14 11 15 -3 19 2 19 25 0 16 -5 32 -10
35 -7 4 -7 12 0 25 14 26 13 60 -2 60 -9 1 -8 5 3 13 8 7 18 22 21 35 5 17 2
22 -12 22 -10 0 -21 -8 -24 -17 -3 -10 -17 -23 -32 -30 -36 -17 -40 3 -16 74
15 45 23 57 37 55 14 -3 16 1 11 23 -4 17 -3 24 4 20 6 -4 10 5 10 22 0 22 2
25 10 13 9 -13 11 -13 20 0 7 11 5 16 -5 18 -20 5 -19 21 3 29 9 4 30 22 46
40 17 20 38 33 52 33 12 0 26 5 29 10 3 6 -1 10 -9 10 -24 0 -19 28 9 56 14
14 25 28 25 32 0 4 8 15 18 24 33 32 44 50 46 74 0 13 5 24 10 24 4 0 6 10 3
22 -3 12 -1 31 6 42 11 20 12 25 15 54 1 6 7 12 14 12 9 0 9 -3 0 -12z m1025
-83 c0 -8 -4 -15 -7 -15 -12 0 -30 26 -24 33 10 10 31 -3 31 -18z m-267 -45
c0 -5 -5 -10 -11 -10 -5 0 -7 5 -4 10 3 6 8 10 11 10 2 0 4 -4 4 -10z m50 -19
c0 -10 103 -48 158 -57 15 -3 51 -16 80 -30 29 -14 57 -22 62 -19 6 3 10 1 10
-4 0 -6 6 -10 13 -8 7 1 13 -11 15 -30 3 -35 22 -46 22 -14 0 14 7 18 30 17
17 -1 35 -7 39 -15 5 -7 19 -18 32 -25 13 -7 23 -18 21 -24 -1 -7 5 -12 14
-12 18 0 14 -28 -13 -113 -8 -27 -13 -51 -10 -53 3 -3 10 12 17 33 17 52 39
85 52 77 6 -4 34 -8 62 -9 28 -2 54 -3 58 -4 4 -1 3 -16 -2 -33 l-9 -33 18 23
c11 12 26 22 35 22 9 0 16 7 16 16 0 9 -5 12 -12 8 -8 -5 -9 -2 -4 11 4 12 0
22 -14 32 -11 8 -17 20 -13 26 3 7 -3 4 -15 -6 -12 -11 -18 -25 -15 -34 5 -12
1 -14 -15 -8 -14 4 -22 2 -22 -6 0 -6 -9 0 -21 15 -16 20 -24 24 -34 16 -10
-8 -14 -4 -17 18 l-4 29 137 -2 c89 0 142 -5 151 -12 11 -10 17 -8 28 7 14 19
50 28 50 13 0 -17 -18 -35 -28 -29 -18 11 -25 -15 -11 -40 9 -18 15 -21 22
-12 7 10 10 10 14 1 7 -20 22 -15 17 5 -2 9 -1 22 3 28 10 14 93 27 93 15 0
-5 7 -11 15 -14 11 -5 13 0 8 23 -4 20 -1 30 7 30 8 0 10 8 6 25 -5 20 -2 26
19 31 14 3 25 10 25 15 0 20 18 7 24 -17 l7 -27 27 31 c15 17 36 32 47 34 14
3 19 11 18 26 -2 18 1 22 20 18 63 -13 150 -15 212 -6 39 6 80 13 91 15 12 1
31 8 43 14 19 11 21 9 21 -14 0 -14 -4 -25 -10 -25 -5 0 -10 -7 -10 -15 0 -8
-4 -16 -10 -16 -5 -1 -16 -2 -22 -3 -7 -1 -11 -8 -9 -16 10 -32 3 -70 -16 -87
-32 -29 -100 -116 -107 -138 -3 -11 -25 -42 -49 -68 -24 -26 -41 -49 -39 -52
3 -3 -7 -5 -22 -5 -21 0 -27 -4 -22 -15 6 -16 -74 -105 -94 -105 -22 0 -70
-34 -70 -50 0 -9 -14 -21 -31 -27 -26 -10 -33 -9 -50 8 -22 22 -39 18 -20 -4
16 -21 3 -47 -24 -47 -13 0 -27 -4 -30 -10 -3 -5 -19 -10 -34 -10 -15 0 -32
-5 -39 -12 -9 -9 -15 -9 -23 -1 -12 12 -39 6 -51 -10 -9 -14 -91 -13 -96 1 -5
15 -29 16 -34 1 -3 -8 -16 -6 -41 5 -21 8 -50 13 -65 10 -31 -5 -176 65 -179
87 -10 73 -15 91 -25 81 -8 -8 -7 -16 3 -28 12 -16 12 -17 -5 -11 -14 6 -17 4
-12 -8 8 -21 -8 -19 -29 5 -10 11 -26 20 -35 20 -20 0 -106 86 -102 101 2 7
-4 9 -11 6 -10 -4 -21 7 -33 31 -11 20 -22 39 -25 42 -3 3 -16 32 -29 65 -13
33 -27 65 -31 70 -6 9 -22 75 -24 98 0 5 -13 20 -30 33 -16 12 -26 26 -22 30
4 4 7 2 7 -4 0 -7 8 -12 18 -12 15 0 19 8 19 45 0 42 -16 63 -37 50 -4 -3 -13
2 -20 10 -7 8 -17 12 -24 8 -6 -4 -5 1 2 9 12 15 42 15 42 -1z m1280 4 c0 -8
-2 -15 -4 -15 -2 0 -6 7 -10 15 -3 8 -1 15 4 15 6 0 10 -7 10 -15z m-1320 -86
c0 -11 -4 -19 -10 -19 -13 0 -32 38 -25 51 10 14 35 -9 35 -32z m-607 -38 c-4
-17 -8 -18 -24 -8 -19 12 -19 12 3 19 13 3 24 6 25 7 0 1 -1 -8 -4 -18z m1677
-40 c0 -12 -9 -21 -27 -24 -16 -3 -40 -9 -56 -13 -22 -5 -26 -3 -22 9 4 8 18
15 31 15 14 0 33 7 42 16 21 21 32 20 32 -3z m1270 7 c0 -7 -5 -20 -10 -28 -9
-13 -11 -13 -19 0 -6 9 -6 19 1 27 13 17 28 17 28 1z m-670 -17 c0 -6 -5 -13
-10 -16 -15 -9 -43 3 -35 15 8 13 45 13 45 1z m-1770 -661 c0 -5 -5 -10 -11
-10 -5 0 -7 5 -4 10 3 6 8 10 11 10 2 0 4 -4 4 -10z m-960 -20 c0 -5 -5 -10
-11 -10 -5 0 -7 5 -4 10 3 6 8 10 11 10 2 0 4 -4 4 -10z m173 -340 c3 -13 0
-20 -9 -20 -8 0 -14 2 -14 4 0 2 -3 11 -6 20 -4 10 -1 16 9 16 8 0 17 -9 20
-20z m172 -280 c3 -5 1 -10 -4 -10 -6 0 -11 5 -11 10 0 6 2 10 4 10 3 0 8 -4
11 -10z m14 -57 c0 -25 -1 -25 -8 -8 -5 11 -7 23 -4 28 8 14 13 7 12 -20z
m1556 -273 c3 -5 1 -10 -4 -10 -6 0 -11 5 -11 10 0 6 2 10 4 10 3 0 8 -4 11
-10z m-11 -22 l29 3 -27 -22 c-26 -21 -28 -21 -41 -3 -18 23 -19 38 -3 28 7
-5 26 -7 42 -6z m26 -28 c0 -5 -4 -10 -10 -10 -5 0 -10 5 -10 10 0 6 5 10 10
10 6 0 10 -4 10 -10z m-55 -30 c-3 -5 -11 -10 -16 -10 -6 0 -7 5 -4 10 3 6 11
10 16 10 6 0 7 -4 4 -10z m10 -220 c3 -5 1 -10 -4 -10 -6 0 -11 5 -11 10 0 6
2 10 4 10 3 0 8 -4 11 -10z m662 4 c-3 -3 -12 -4 -19 -1 -8 3 -5 6 6 6 11 1
17 -2 13 -5z m-942 -85 c11 -17 -1 -21 -15 -4 -8 9 -8 15 -2 15 6 0 14 -5 17
-11z"/>
<path d="M3360 7419 c0 -5 5 -7 10 -4 6 3 10 8 10 11 0 2 -4 4 -10 4 -5 0 -10
-5 -10 -11z"/>
<path d="M4475 7180 c-3 -5 -1 -10 4 -10 6 0 11 5 11 10 0 6 -2 10 -4 10 -3 0
-8 -4 -11 -10z"/>
<path d="M4200 6979 c0 -5 5 -7 10 -4 6 3 10 8 10 11 0 2 -4 4 -10 4 -5 0 -10
-5 -10 -11z"/>
<path d="M6527 7015 c-4 -8 -2 -17 3 -20 6 -4 10 3 10 14 0 25 -6 27 -13 6z"/>
<path d="M6600 6950 c0 -5 5 -10 11 -10 5 0 7 5 4 10 -3 6 -8 10 -11 10 -2 0
-4 -4 -4 -10z"/>
<path d="M5726 6947 c3 -10 9 -15 12 -12 3 3 0 11 -7 18 -10 9 -11 8 -5 -6z"/>
<path d="M5590 6880 c0 -5 5 -10 11 -10 5 0 7 5 4 10 -3 6 -8 10 -11 10 -2 0
-4 -4 -4 -10z"/>
<path d="M5620 6784 c0 -21 4 -33 10 -29 6 3 10 -1 10 -9 0 -8 4 -17 9 -20 11
-7 2 34 -11 51 -5 7 -5 14 2 18 15 9 12 25 -5 25 -11 0 -15 -11 -15 -36z"/>
<path d="M5392 6780 c-12 -12 -20 -25 -17 -30 3 -5 -8 -22 -25 -38 -16 -16
-27 -32 -23 -35 3 -4 -6 -7 -20 -7 -19 0 -25 -4 -21 -14 3 -9 -3 -17 -15 -21
-25 -7 -27 -20 -6 -29 8 -3 12 -12 9 -19 -3 -8 2 -17 11 -21 9 -3 13 -10 10
-16 -18 -30 49 3 78 38 10 12 23 19 29 16 6 -4 8 -2 5 3 -4 6 6 24 22 41 19
20 28 37 24 50 -4 16 2 20 37 26 22 3 38 11 35 16 -3 6 -15 6 -30 0 -22 -8
-24 -6 -27 23 -2 26 -8 33 -28 35 -15 2 -34 -6 -48 -18z m43 -90 c-3 -5 -11
-10 -17 -10 -6 0 -20 -7 -30 -17 -10 -9 -18 -11 -18 -6 0 14 20 30 45 36 11 2
21 5 23 6 2 0 0 -3 -3 -9z"/>
<path d="M4905 6721 c10 -17 66 -24 78 -11 9 10 8 12 -5 7 -10 -3 -20 -2 -23
3 -4 6 -17 10 -31 10 -14 0 -23 -4 -19 -9z"/>
<path d="M5510 6649 c0 -5 5 -7 10 -4 6 3 10 8 10 11 0 2 -4 4 -10 4 -5 0 -10
-5 -10 -11z"/>
<path d="M6277 6416 c-4 -10 -5 -21 -2 -24 9 -9 17 6 13 25 -3 17 -4 17 -11
-1z"/>
<path d="M6430 6274 c0 -3 6 -12 14 -19 12 -12 15 -12 20 1 3 8 2 12 -4 9 -6
-3 -10 -1 -10 4 0 6 -4 11 -10 11 -5 0 -10 -3 -10 -6z"/>
<path d="M6490 6199 c0 -18 2 -19 15 -9 15 12 12 30 -6 30 -5 0 -9 -10 -9 -21z"/>
<path d="M2640 6836 c0 -9 5 -16 10 -16 6 0 10 4 10 9 0 6 -4 13 -10 16 -5 3
-10 -1 -10 -9z"/>
<path d="M8005 6140 c-3 -5 -1 -10 4 -10 6 0 11 5 11 10 0 6 -2 10 -4 10 -3 0
-8 -4 -11 -10z"/>
<path d="M8883 6116 c0 -8 9 -17 20 -20 18 -4 18 -4 1 15 -21 23 -21 23 -21 5z"/>
<path d="M8355 6042 c-16 -8 -25 -17 -19 -19 8 -3 9 -15 4 -38 -6 -25 -4 -35
6 -39 15 -6 17 2 15 44 -2 19 0 22 8 11 13 -20 38 1 36 31 -2 28 -12 30 -50
10z"/>
<path d="M7977 5990 c3 -11 7 -20 8 -20 1 0 5 9 8 20 3 12 0 20 -8 20 -8 0
-11 -8 -8 -20z"/>
<path d="M8077 5993 c-4 -3 -7 -11 -7 -17 0 -6 5 -5 12 2 6 6 9 14 7 17 -3 3
-9 2 -12 -2z"/>
<path d="M8170 5970 c0 -5 5 -10 10 -10 6 0 10 5 10 10 0 6 -4 10 -10 10 -5 0
-10 -4 -10 -10z"/>
<path d="M8337 5924 c-9 -9 4 -35 14 -28 5 3 9 12 9 20 0 14 -12 19 -23 8z"/>
<path d="M7617 5907 c-4 -10 -7 -28 -6 -40 0 -21 1 -21 10 2 5 14 8 32 7 40
-3 13 -5 13 -11 -2z"/>
<path d="M5001 4804 c0 -11 3 -14 6 -6 3 7 2 16 -1 19 -3 4 -6 -2 -5 -13z"/>
<path d="M5092 4540 c0 -14 2 -19 5 -12 2 6 2 18 0 25 -3 6 -5 1 -5 -13z"/>
<path d="M5103 4395 c0 -27 2 -38 4 -22 2 15 2 37 0 50 -2 12 -4 0 -4 -28z"/>
<path d="M4882 4410 c0 -14 2 -19 5 -12 2 6 2 18 0 25 -3 6 -5 1 -5 -13z"/>
<path d="M5282 4370 c0 -14 2 -19 5 -12 2 6 2 18 0 25 -3 6 -5 1 -5 -13z"/>
<path d="M4478 4353 c6 -2 18 -2 25 0 6 3 1 5 -13 5 -14 0 -19 -2 -12 -5z"/>
<path d="M5905 4330 c3 -5 8 -10 11 -10 2 0 4 5 4 10 0 6 -5 10 -11 10 -5 0
-7 -4 -4 -10z"/>
<path d="M4295 4310 c3 -5 11 -10 16 -10 6 0 7 5 4 10 -3 6 -11 10 -16 10 -6
0 -7 -4 -4 -10z"/>
<path d="M5100 4291 c0 -6 5 -13 10 -16 6 -3 10 1 10 9 0 9 -4 16 -10 16 -5 0
-10 -4 -10 -9z"/>
<path d="M6175 4270 c-3 -5 -2 -10 4 -10 5 0 13 5 16 10 3 6 2 10 -4 10 -5 0
-13 -4 -16 -10z"/>
<path d="M5306 4213 c10 -40 14 -41 14 -5 0 18 -5 32 -10 32 -6 0 -8 -11 -4
-27z"/>
<path d="M5573 4165 c0 -22 2 -30 4 -17 2 12 2 30 0 40 -3 9 -5 -1 -4 -23z"/>
<path d="M6111 4143 c0 -16 4 -37 9 -48 6 -15 9 -8 9 28 1 26 -3 47 -9 47 -5
0 -10 -12 -9 -27z"/>
<path d="M4760 4144 c0 -8 5 -12 10 -9 6 3 10 10 10 16 0 5 -4 9 -10 9 -5 0
-10 -7 -10 -16z"/>
<path d="M5575 4090 c3 -5 8 -10 11 -10 2 0 4 5 4 10 0 6 -5 10 -11 10 -5 0
-7 -4 -4 -10z"/>
<path d="M4611 4074 c0 -11 3 -14 6 -6 3 7 2 16 -1 19 -3 4 -6 -2 -5 -13z"/>
<path d="M6112 4050 c-5 -14 -7 -29 -4 -34 7 -12 24 33 18 48 -2 6 -8 0 -14
-14z"/>
<path d="M5580 4043 c0 -10 5 -25 10 -33 8 -12 10 -9 10 12 0 15 -4 30 -10 33
-5 3 -10 -2 -10 -12z"/>
<path d="M5201 3994 c0 -11 3 -14 6 -6 3 7 2 16 -1 19 -3 4 -6 -2 -5 -13z"/>
<path d="M5733 3783 c-10 -16 -13 -16 -22 -3 -9 12 -11 12 -17 -3 -3 -9 -11
-17 -16 -17 -6 0 -16 -7 -22 -15 -6 -9 -25 -17 -42 -19 -18 -2 -51 -16 -74
-31 -23 -14 -44 -24 -48 -21 -3 3 -14 -2 -24 -11 -11 -10 -32 -16 -49 -15 -18
1 -35 -5 -45 -16 -14 -17 -21 -18 -56 -8 -22 7 -43 17 -47 24 -5 9 -18 6 -47
-9 -22 -11 -50 -18 -64 -15 -51 9 -60 12 -72 24 -7 7 -21 12 -31 12 -38 0
-182 53 -208 76 -31 29 -35 30 -42 4 -4 -14 -14 -20 -35 -20 -16 0 -50 -3 -76
-6 l-46 -7 0 -111 c0 -86 5 -120 19 -151 27 -59 235 -243 303 -269 26 -10 32
-8 49 13 11 13 18 30 15 36 -2 7 8 28 24 47 16 19 32 47 35 61 4 15 10 25 15
22 4 -2 12 7 19 22 10 21 9 29 -4 43 -9 10 -15 22 -13 27 2 5 -12 23 -31 38
-29 25 -35 27 -45 14 -6 -8 -20 -13 -30 -11 -15 3 -18 0 -13 -17 3 -15 -1 -25
-14 -31 -13 -7 -19 -7 -19 0 0 5 5 10 12 10 6 0 8 3 4 8 -4 4 -31 7 -59 7 -36
0 -51 4 -50 13 2 6 -2 12 -8 12 -17 0 -41 30 -36 44 6 14 -18 31 -39 27 -6 -1
-11 10 -11 23 0 28 19 28 60 1 13 -8 32 -13 41 -9 11 4 16 1 16 -11 0 -12 5
-15 16 -11 9 3 32 2 53 -3 20 -6 48 -12 62 -15 14 -3 43 -17 64 -32 30 -20 47
-25 75 -21 20 2 45 0 55 -5 13 -8 16 -7 11 1 -5 7 1 11 13 11 15 0 19 -5 15
-17 -5 -16 -5 -16 5 -1 10 14 16 15 57 2 26 -7 50 -11 54 -9 5 3 11 1 14 -4 3
-5 -3 -11 -14 -14 -11 -3 -20 -13 -20 -22 0 -10 -5 -13 -12 -9 -7 5 -8 3 -3
-7 5 -7 8 -27 7 -44 -2 -30 -2 -30 12 -6 12 22 13 22 21 5 5 -11 7 -22 7 -26
-1 -5 4 -8 10 -8 9 0 9 -3 -1 -9 -12 -8 -12 -14 -1 -40 7 -17 19 -31 26 -31 8
0 14 -3 14 -7 0 -13 61 -43 87 -43 28 0 100 49 150 102 17 18 49 49 70 69 41
38 58 61 98 133 36 65 35 166 -3 227 -17 27 -67 69 -84 69 -2 0 -8 -8 -15 -17z
m-76 -153 c-4 -16 -1 -20 11 -19 49 6 66 -35 38 -89 -34 -67 -88 -81 -81 -22
2 17 0 42 -5 56 l-10 24 -20 -20 c-11 -11 -24 -20 -30 -20 -5 0 -10 -13 -10
-29 0 -19 -8 -34 -22 -43 -30 -19 -67 -28 -73 -18 -2 4 -18 10 -35 14 -27 5
-29 8 -18 25 7 11 15 18 20 15 4 -3 15 0 25 5 10 5 38 17 62 27 25 11 65 40
90 66 50 51 66 59 58 28z"/>
<path d="M4766 3773 c-11 -11 -6 -23 9 -23 8 0 15 4 15 9 0 13 -16 22 -24 14z"/>
<path d="M5175 3470 c-3 -6 1 -7 9 -4 18 7 21 14 7 14 -6 0 -13 -4 -16 -10z"/>
<path d="M5274 3386 c-3 -8 -1 -22 4 -31 7 -14 9 -11 10 14 1 33 -5 40 -14 17z"/>
<path d="M4980 3089 c0 -6 7 -9 15 -5 9 3 15 0 15 -9 0 -24 38 -55 66 -55 21
0 24 3 15 13 -7 10 -7 17 0 24 7 7 7 13 1 17 -6 3 -13 -3 -17 -14 -7 -23 -25
-27 -25 -5 0 8 -6 12 -14 9 -8 -3 -16 3 -19 15 -5 22 -37 30 -37 10z"/>
<path d="M5712 2981 c-12 -7 -13 -61 -1 -61 8 0 23 59 17 65 -2 2 -9 1 -16 -4z"/>
<path d="M5655 2869 c-4 -6 -5 -13 -2 -16 7 -7 27 6 27 18 0 12 -17 12 -25 -2z"/>
<path d="M4874 2835 c24 -18 39 -20 34 -2 -3 6 -15 13 -29 15 -23 2 -23 2 -5
-13z"/>
<path d="M3430 4384 c-6 -14 -10 -33 -10 -41 0 -14 3 -14 19 3 10 10 15 23 11
28 -5 5 -6 15 -3 22 3 8 2 14 -1 14 -4 0 -11 -12 -16 -26z"/>
<path d="M4455 2180 c3 -5 8 -10 11 -10 2 0 4 5 4 10 0 6 -5 10 -11 10 -5 0
-7 -4 -4 -10z"/>
<path d="M6080 2030 c0 -5 14 -10 31 -10 17 0 28 4 24 10 -3 6 -17 10 -31 10
-13 0 -24 -4 -24 -10z"/>
<path d="M4950 1241 c0 -17 18 -21 24 -6 3 9 0 15 -9 15 -8 0 -15 -4 -15 -9z"/>
<path d="M5047 1126 c-4 -9 2 -13 19 -13 20 0 22 2 13 13 -6 8 -15 14 -19 14
-4 0 -10 -6 -13 -14z"/>
<path d="M5365 1100 c-3 -5 -1 -10 4 -10 6 0 11 5 11 10 0 6 -2 10 -4 10 -3 0
-8 -4 -11 -10z"/>
<path d="M5417 1083 c-25 -7 -16 -27 15 -31 16 -2 25 2 25 12 0 8 -6 12 -15 8
-10 -3 -13 -1 -8 6 4 7 6 11 4 11 -2 -1 -11 -3 -21 -6z"/>
<path d="M5490 1058 c0 -6 3 -8 7 -5 3 4 12 2 20 -4 8 -7 13 -8 13 -1 0 5 -7
13 -16 16 -22 8 -24 8 -24 -6z"/>
<path d="M5405 1030 c3 -5 8 -10 11 -10 2 0 4 5 4 10 0 6 -5 10 -11 10 -5 0
-7 -4 -4 -10z"/>
<path d="M5450 1036 c0 -2 7 -9 15 -16 12 -10 15 -10 15 4 0 9 -7 16 -15 16
-8 0 -15 -2 -15 -4z"/>
<path d="M6745 1760 c3 -5 11 -10 16 -10 6 0 7 5 4 10 -3 6 -11 10 -16 10 -6
0 -7 -4 -4 -10z"/>
<path d="M6690 1655 c0 -3 14 -11 30 -20 17 -9 30 -11 30 -6 0 5 -13 14 -30
20 -16 5 -30 8 -30 6z"/>
<path d="M6715 1470 c3 -5 11 -10 16 -10 6 0 7 5 4 10 -3 6 -11 10 -16 10 -6
0 -7 -4 -4 -10z"/>
<path d="M6153 733 c-7 -2 -13 -9 -13 -14 0 -14 26 -10 40 6 10 12 10 15 -1
14 -8 0 -20 -3 -26 -6z"/>
<path d="M3806 2755 c-3 -9 -6 -22 -5 -28 0 -7 5 -1 10 12 5 13 8 26 5 28 -2
2 -6 -3 -10 -12z"/>
<path d="M3441 2334 c0 -11 3 -14 6 -6 3 7 2 16 -1 19 -3 4 -6 -2 -5 -13z"/>
<path d="M4425 940 c-3 -5 -1 -10 4 -10 6 0 11 5 11 10 0 6 -2 10 -4 10 -3 0
-8 -4 -11 -10z"/>
<path d="M4695 2640 c3 -5 8 -10 11 -10 2 0 4 5 4 10 0 6 -5 10 -11 10 -5 0
-7 -4 -4 -10z"/>
<path d="M5650 2591 c0 -10 19 -25 25 -20 1 2 -3 10 -11 17 -8 7 -14 8 -14 3z"/>
<path d="M4867 2558 c8 -46 13 -48 13 -5 0 21 -4 37 -10 37 -5 0 -7 -14 -3
-32z"/>
<path d="M5889 2567 c7 -7 14 -8 21 -1 6 6 2 10 -12 11 -16 2 -18 -1 -9 -10z"/>
<path d="M4901 2528 c0 -21 -7 -57 -15 -80 -16 -47 -24 -114 -15 -123 4 -3 10
18 14 47 5 29 9 55 10 58 9 28 16 83 12 106 -3 25 -4 25 -6 -8z"/>
<path d="M4947 2554 c-4 -4 -7 -14 -7 -23 0 -11 3 -12 11 -4 6 6 10 16 7 23
-2 6 -7 8 -11 4z"/>
<path d="M5600 2556 c0 -2 7 -7 16 -10 8 -3 12 -2 9 4 -6 10 -25 14 -25 6z"/>
<path d="M5268 2532 c-8 -30 3 -82 18 -82 8 0 14 6 14 13 0 20 33 47 47 39 6
-4 11 -16 10 -26 -1 -10 4 -21 11 -23 8 -3 12 7 12 35 0 37 -2 39 -30 37 -16
-1 -27 2 -25 6 5 7 -18 19 -40 19 -7 0 -15 -8 -17 -18z"/>
<path d="M4736 2488 c3 -5 10 -6 15 -3 13 9 11 12 -6 12 -8 0 -12 -4 -9 -9z"/>
<path d="M5428 2482 c-22 -4 -23 -18 -4 -25 8 -3 17 1 20 10 8 19 6 20 -16 15z"/>
<path d="M5115 2419 c0 -21 3 -39 8 -39 4 0 7 9 7 21 0 11 5 17 10 14 16 -10
12 4 -7 25 -17 18 -18 17 -18 -21z"/>
<path d="M4792 2426 c2 -16 9 -31 17 -34 10 -3 11 2 6 19 -12 39 -27 48 -23
15z"/>
<path d="M4745 2430 c-3 -5 -1 -10 4 -10 6 0 11 5 11 10 0 6 -2 10 -4 10 -3 0
-8 -4 -11 -10z"/>
<path d="M5567 2400 c3 -11 9 -20 14 -20 11 0 11 3 3 24 -9 23 -23 20 -17 -4z"/>
<path d="M5026 2394 c-3 -9 -6 -25 -6 -36 0 -17 2 -18 15 -4 16 16 21 56 6 56
-5 0 -12 -7 -15 -16z"/>
<path d="M5790 2363 c0 -26 25 -31 34 -7 4 9 2 13 -5 8 -6 -4 -15 0 -20 7 -6
10 -9 8 -9 -8z"/>
<path d="M5665 2300 c-3 -5 -2 -10 4 -10 5 0 13 5 16 10 3 6 2 10 -4 10 -5 0
-13 -4 -16 -10z"/>
<path d="M5714 2298 c-3 -4 2 -8 10 -8 8 0 17 4 20 8 3 5 -2 9 -10 9 -8 0 -17
-4 -20 -9z"/>
<path d="M5677 2229 c4 -13 8 -18 11 -10 2 7 -1 18 -6 23 -8 8 -9 4 -5 -13z"/>
<path d="M5285 2190 c-3 -5 -1 -10 4 -10 6 0 11 5 11 10 0 6 -2 10 -4 10 -3 0
-8 -4 -11 -10z"/>
<path d="M4991 2133 c-1 -12 4 -25 10 -28 14 -9 27 4 13 13 -6 4 -14 14 -17
22 -4 10 -6 8 -6 -7z"/>
<path d="M5650 7130 c-8 -5 -10 -10 -5 -10 6 0 17 5 25 10 8 5 11 10 5 10 -5
0 -17 -5 -25 -10z"/>
<path d="M5715 7114 c-18 -14 -18 -14 2 -14 23 0 39 15 26 23 -5 3 -17 -1 -28
-9z"/>
<path d="M10080 80 l0 -80 80 0 80 0 0 80 0 80 -80 0 -80 0 0 -80z"/>
</g>
</svg>
